<svg id="Layer_1" data-name="Layer 1" xmlns="http://www.w3.org/2000/svg" xmlns:xlink="http://www.w3.org/1999/xlink" viewBox="0 0 200 200"><defs><style>.cls-1,.cls-10,.cls-4,.cls-7,.cls-8{fill:none;}.cls-2{fill:#fff;}.cls-3{fill:#112369;}.cls-4,.cls-7{stroke:#fcb415;}.cls-4{stroke-width:3.04px;}.cls-5{clip-path:url(#clip-path);}.cls-6{fill:#ed1c24;}.cls-7,.cls-8{stroke-linecap:round;stroke-linejoin:round;}.cls-7{stroke-width:2.74px;}.cls-10,.cls-8{stroke:#112369;}.cls-8{stroke-width:1.64px;}.cls-9{fill:#fcb415;}.cls-10{stroke-width:1.22px;}</style><clipPath id="clip-path"><path class="cls-1" d="M54.8,107.08c0-23.46,19.7-42.48,44-42.48s44,19,44,42.48-19.7,42.47-44,42.47-44-19-44-42.47Z"/></clipPath></defs><title>CASV-logo-color</title><path class="cls-2" d="M54.8,107.08c0-23.46,19.7-42.48,44-42.48s44,19,44,42.48-19.7,22.54-44,22.54-44,.91-44-22.54Z"/><path class="cls-3" d="M46.64,97l-.08-.07-2.73-.18.77.61A9.94,9.94,0,0,1,47.06,100a4.66,4.66,0,0,1,.57,2.56,3.71,3.71,0,0,1-1.17,2.6,6.29,6.29,0,0,1-3.14,1.34,19.12,19.12,0,0,1-4.61.2,14.38,14.38,0,0,1-4.58-1,5.46,5.46,0,0,1-2.43-1.84,3.77,3.77,0,0,1-.78-2.52,4,4,0,0,1,1.48-2.8A7.27,7.27,0,0,1,36.33,97l.26,0,.07-1-7.21-.5,0,.31,0,.67.27.06a1.75,1.75,0,0,1,.87.34.45.45,0,0,1,.19.4,3.85,3.85,0,0,1-.56,1.17A8.56,8.56,0,0,0,29,102a7.71,7.71,0,0,0,1.11,4.44,9.65,9.65,0,0,0,3.69,3.49A12.38,12.38,0,0,0,39,111.45a12.21,12.21,0,0,0,5.07-.73,8.07,8.07,0,0,0,5.43-7.27A7.15,7.15,0,0,0,49,100a9.11,9.11,0,0,0-2.32-3Z"/><path class="cls-4" d="M46.64,97l-.08-.07-2.73-.18.77.61A9.94,9.94,0,0,1,47.06,100a4.66,4.66,0,0,1,.57,2.56,3.71,3.71,0,0,1-1.17,2.6,6.29,6.29,0,0,1-3.14,1.34,19.12,19.12,0,0,1-4.61.2,14.38,14.38,0,0,1-4.58-1,5.46,5.46,0,0,1-2.43-1.84,3.77,3.77,0,0,1-.78-2.52,4,4,0,0,1,1.48-2.8A7.27,7.27,0,0,1,36.33,97l.26,0,.07-1-7.21-.5,0,.31,0,.67.27.06a1.75,1.75,0,0,1,.87.34.45.45,0,0,1,.19.4,3.85,3.85,0,0,1-.56,1.17A8.56,8.56,0,0,0,29,102a7.71,7.71,0,0,0,1.11,4.44,9.65,9.65,0,0,0,3.69,3.49A12.38,12.38,0,0,0,39,111.45a12.21,12.21,0,0,0,5.07-.73,8.07,8.07,0,0,0,5.43-7.27A7.15,7.15,0,0,0,49,100a9.11,9.11,0,0,0-2.32-3Z"/><path class="cls-3" d="M51.22,88.92A2.68,2.68,0,0,1,49,90.63c-1.72.27-4.09-.18-7.05-1.35a17.28,17.28,0,0,1-5.44-3.07c-1.3-1.25-1.7-2.44-1.23-3.63a2.64,2.64,0,0,1,1.32-1.43,5.42,5.42,0,0,1,2.83-.34,20.61,20.61,0,0,1,5.38,1.52,19.81,19.81,0,0,1,4.52,2.37,5.91,5.91,0,0,1,2,2.37,2.48,2.48,0,0,1-.06,1.85ZM46.27,77.85a11.21,11.21,0,0,0-7.63-.46,7.19,7.19,0,0,0-4.86,4.77A6.82,6.82,0,0,0,33.14,85a7.72,7.72,0,0,0,1,3.72,11.16,11.16,0,0,0,5.9,4.9,12.05,12.05,0,0,0,6.91.74,7.53,7.53,0,0,0,5.82-4.88,7.45,7.45,0,0,0-1.09-7.6,12.11,12.11,0,0,0-5.44-4Z"/><path class="cls-4" d="M51.22,88.92A2.68,2.68,0,0,1,49,90.63c-1.72.27-4.09-.18-7.05-1.35a17.28,17.28,0,0,1-5.44-3.07c-1.3-1.25-1.7-2.44-1.23-3.63a2.64,2.64,0,0,1,1.32-1.43,5.42,5.42,0,0,1,2.83-.34,20.61,20.61,0,0,1,5.38,1.52,19.81,19.81,0,0,1,4.52,2.37,5.91,5.91,0,0,1,2,2.37,2.48,2.48,0,0,1-.06,1.85ZM46.27,77.85a11.21,11.21,0,0,0-7.63-.46,7.19,7.19,0,0,0-4.86,4.77A6.82,6.82,0,0,0,33.14,85a7.72,7.72,0,0,0,1,3.72,11.16,11.16,0,0,0,5.9,4.9,12.05,12.05,0,0,0,6.91.74,7.53,7.53,0,0,0,5.82-4.88,7.45,7.45,0,0,0-1.09-7.6,12.11,12.11,0,0,0-5.44-4Z"/><path class="cls-3" d="M57.07,75.53c-1.71-.29-3.81-1.48-6.25-3.53a17.63,17.63,0,0,1-4.17-4.65c-.82-1.6-.83-2.86,0-3.83a2.56,2.56,0,0,1,1.7-.94,5.4,5.4,0,0,1,2.79.58,21.07,21.07,0,0,1,4.62,3.17A18.76,18.76,0,0,1,59.27,70a5.65,5.65,0,0,1,1.14,2.89,2.42,2.42,0,0,1-.65,1.72,2.65,2.65,0,0,1-2.69.9Zm1.55-13a11.13,11.13,0,0,0-7.08-2.88,7.23,7.23,0,0,0-6.13,3,6.82,6.82,0,0,0-1.89,4.77A8.93,8.93,0,0,0,43.68,69a11.12,11.12,0,0,0,4,6.53A12,12,0,0,0,54,78.44a7.53,7.53,0,0,0,7.08-2.76,7.44,7.44,0,0,0,1.4-7.54,12.09,12.09,0,0,0-3.86-5.57Z"/><path class="cls-4" d="M57.07,75.53c-1.71-.29-3.81-1.48-6.25-3.53a17.63,17.63,0,0,1-4.17-4.65c-.82-1.6-.83-2.86,0-3.83a2.56,2.56,0,0,1,1.7-.94,5.4,5.4,0,0,1,2.79.58,21.07,21.07,0,0,1,4.62,3.17A18.76,18.76,0,0,1,59.27,70a5.65,5.65,0,0,1,1.14,2.89,2.42,2.42,0,0,1-.65,1.72,2.65,2.65,0,0,1-2.69.9Zm1.55-13a11.13,11.13,0,0,0-7.08-2.88,7.23,7.23,0,0,0-6.13,3,6.82,6.82,0,0,0-1.89,4.77A8.93,8.93,0,0,0,43.68,69a11.12,11.12,0,0,0,4,6.53A12,12,0,0,0,54,78.44a7.53,7.53,0,0,0,7.08-2.76,7.44,7.44,0,0,0,1.4-7.54,12.09,12.09,0,0,0-3.86-5.57Z"/><path class="cls-3" d="M66.78,55.57a2.19,2.19,0,0,1-1.08,1.78l-.24.14-4.2-6.41.13-.08a2.31,2.31,0,0,1,2.15-.37,4.91,4.91,0,0,1,2.19,2.06,5.48,5.48,0,0,1,1,2.75v.13Zm5.31,8.6a2.57,2.57,0,0,1-1.21.55.87.87,0,0,1-.63-.18,6.16,6.16,0,0,1-1.13-1.47l-2.75-4.19a13.19,13.19,0,0,0,2.74-2.21,5,5,0,0,0,1.23-3.08V53.4a5.73,5.73,0,0,0-1-3.16,5.27,5.27,0,0,0-3.4-2.38c-1.41-.3-3.11.18-5,1.44L55,53.17l.61.92.26-.17a2.76,2.76,0,0,1,1.22-.56,1,1,0,0,1,.62.18A7,7,0,0,1,58.84,55l6.77,10.34A6.61,6.61,0,0,1,66.52,67a.94.94,0,0,1-.08.65,2.85,2.85,0,0,1-1,.89l-.26.17.61.92L73,64.94,72.34,64l-.25.16Z"/><path class="cls-4" d="M66.78,55.57a2.19,2.19,0,0,1-1.08,1.78l-.24.14-4.2-6.41.13-.08a2.31,2.31,0,0,1,2.15-.37,4.91,4.91,0,0,1,2.19,2.06,5.48,5.48,0,0,1,1,2.75v.13Zm5.31,8.6a2.57,2.57,0,0,1-1.21.55.87.87,0,0,1-.63-.18,6.16,6.16,0,0,1-1.13-1.47l-2.75-4.19a13.19,13.19,0,0,0,2.74-2.21,5,5,0,0,0,1.23-3.08V53.4a5.73,5.73,0,0,0-1-3.16,5.27,5.27,0,0,0-3.4-2.38c-1.41-.3-3.11.18-5,1.44L55,53.17l.61.92.26-.17a2.76,2.76,0,0,1,1.22-.56,1,1,0,0,1,.62.18A7,7,0,0,1,58.84,55l6.77,10.34A6.61,6.61,0,0,1,66.52,67a.94.94,0,0,1-.08.65,2.85,2.85,0,0,1-1,.89l-.26.17.61.92L73,64.94,72.34,64l-.25.16Z"/><path class="cls-3" d="M87,52l0,.24a7.1,7.1,0,0,1-.57,4,4.5,4.5,0,0,1-2.71,2.1l-.88.3a1.29,1.29,0,0,1-.78.08.93.93,0,0,1-.42-.31A9.31,9.31,0,0,1,81,56.63S79.74,53,79.37,51.87a2.81,2.81,0,0,1,1.24-.11,2.63,2.63,0,0,1,1.24.91,9.31,9.31,0,0,1,1.33,2.27l.11.26.94-.32L80.9,44.8l-.94.32.06.27a10.42,10.42,0,0,1,.35,2.42,4.19,4.19,0,0,1-.09.91,2,2,0,0,1-1.44,1.52l-2.23-6.75,1.19-.4a7.34,7.34,0,0,1,2.26-.5,3.33,3.33,0,0,1,1.85.65,7.75,7.75,0,0,1,1.72,2.4l.12.23.93-.3-2-5.93-.29.11L69.89,43.88l.34,1,.78-.25a1.38,1.38,0,0,1,1,0,1.13,1.13,0,0,1,.51.47c0,.1.19.44.53,1.44L77,58.49a6.68,6.68,0,0,1,.43,1.63,1,1,0,0,1-.16.62,1.5,1.5,0,0,1-.8.52l-.77.25.34,1.05,13.21-4.35-1.37-6.58L87,52Z"/><path class="cls-4" d="M87,52l0,.24a7.1,7.1,0,0,1-.57,4,4.5,4.5,0,0,1-2.71,2.1l-.88.3a1.29,1.29,0,0,1-.78.08.93.93,0,0,1-.42-.31A9.31,9.31,0,0,1,81,56.63S79.74,53,79.37,51.87a2.81,2.81,0,0,1,1.24-.11,2.63,2.63,0,0,1,1.24.91,9.31,9.31,0,0,1,1.33,2.27l.11.26.94-.32L80.9,44.8l-.94.32.06.27a10.42,10.42,0,0,1,.35,2.42,4.19,4.19,0,0,1-.09.91,2,2,0,0,1-1.44,1.52l-2.23-6.75,1.19-.4a7.34,7.34,0,0,1,2.26-.5,3.33,3.33,0,0,1,1.85.65,7.75,7.75,0,0,1,1.72,2.4l.12.23.93-.3-2-5.93-.29.11L69.89,43.88l.34,1,.78-.25a1.38,1.38,0,0,1,1,0,1.13,1.13,0,0,1,.51.47c0,.1.19.44.53,1.44L77,58.49a6.68,6.68,0,0,1,.43,1.63,1,1,0,0,1-.16.62,1.5,1.5,0,0,1-.8.52l-.77.25.34,1.05,13.21-4.35-1.37-6.58L87,52Z"/><path class="cls-3" d="M95.77,39.73l.91,0a3,3,0,0,1,2.46.86,4.78,4.78,0,0,1,.82,3v.19a5.18,5.18,0,0,1-.37,2.09A2.28,2.28,0,0,1,98.52,47a6.07,6.07,0,0,1-2.26.37h-.35l-.14-7.59Zm5.87,17.88,5.28-.11,0-1.13h-.29a1.39,1.39,0,0,1-.87-.37,8.37,8.37,0,0,1-1-1.48s-3.33-5.53-3.64-6.07a4.92,4.92,0,0,0,2-1.28,5.37,5.37,0,0,0,1.23-3.57v-.15a5.87,5.87,0,0,0-.93-3.16A4.51,4.51,0,0,0,101,38.43,13.43,13.43,0,0,0,96.81,38l-7.49.16,0,1.1h.3a2.86,2.86,0,0,1,1.33.16,1,1,0,0,1,.44.48,6.93,6.93,0,0,1,.17,1.83l.24,12.45a7,7,0,0,1-.1,1.82,1,1,0,0,1-.42.49,2.65,2.65,0,0,1-1.31.23h-.31l0,1.09,8.6-.16V56.56H98a2.67,2.67,0,0,1-1.31-.17,1,1,0,0,1-.44-.48,6.72,6.72,0,0,1-.17-1.82S96,50.13,96,49h.54c.17.3,5.15,8.61,5.15,8.61Z"/><path class="cls-4" d="M95.77,39.73l.91,0a3,3,0,0,1,2.46.86,4.78,4.78,0,0,1,.82,3v.19a5.18,5.18,0,0,1-.37,2.09A2.28,2.28,0,0,1,98.52,47a6.07,6.07,0,0,1-2.26.37h-.35l-.14-7.59Zm5.87,17.88,5.28-.11,0-1.13h-.29a1.39,1.39,0,0,1-.87-.37,8.37,8.37,0,0,1-1-1.48s-3.33-5.53-3.64-6.07a4.92,4.92,0,0,0,2-1.28,5.37,5.37,0,0,0,1.23-3.57v-.15a5.87,5.87,0,0,0-.93-3.16A4.51,4.51,0,0,0,101,38.43,13.43,13.43,0,0,0,96.81,38l-7.49.16,0,1.1h.3a2.86,2.86,0,0,1,1.33.16,1,1,0,0,1,.44.48,6.93,6.93,0,0,1,.17,1.83l.24,12.45a7,7,0,0,1-.1,1.82,1,1,0,0,1-.42.49,2.65,2.65,0,0,1-1.31.23h-.31l0,1.09,8.6-.16V56.56H98a2.67,2.67,0,0,1-1.31-.17,1,1,0,0,1-.44-.48,6.72,6.72,0,0,1-.17-1.82S96,50.13,96,49h.54c.17.3,5.15,8.61,5.15,8.61Z"/><path class="cls-3" d="M116.8,47.83a20.29,20.29,0,0,1-1.92-2.21,4.48,4.48,0,0,1-.63-1.43,2.15,2.15,0,0,1,.06-1,2.25,2.25,0,0,1,1-1.34,2,2,0,0,1,1.75-.21,3.54,3.54,0,0,1,2.15,2,6.64,6.64,0,0,1,.53,3.94l0,.27,1,.27,1.71-6.74-.92-.26-.12.24a2.74,2.74,0,0,1-.49.84.23.23,0,0,1-.23,0c-.06,0-.27-.1-.78-.64a7.49,7.49,0,0,0-1.15-1,5.38,5.38,0,0,0-1.44-.65,4.61,4.61,0,0,0-4,.69,6.56,6.56,0,0,0-2.64,6.17,6.87,6.87,0,0,0,.86,2.43,17.89,17.89,0,0,0,2.39,3,12.41,12.41,0,0,1,1.58,1.93,3.51,3.51,0,0,1,.49,1.28,2.72,2.72,0,0,1-.06,1.21,2.64,2.64,0,0,1-1.13,1.55,2.35,2.35,0,0,1-2,.24,3.89,3.89,0,0,1-2.37-2.2,8.68,8.68,0,0,1-.61-4.8l0-.26-.94-.26-2.07,7.52.89.25.13-.18a1.67,1.67,0,0,1,.63-.6.81.81,0,0,1,.46-.09,1.81,1.81,0,0,1,.67.45,9.08,9.08,0,0,0,1.44,1.13,5.48,5.48,0,0,0,5.78-.09,6.31,6.31,0,0,0,2.68-3.73,6.4,6.4,0,0,0,0-3.63,11.39,11.39,0,0,0-2.75-4.09Z"/><path class="cls-4" d="M116.8,47.83a20.29,20.29,0,0,1-1.92-2.21,4.48,4.48,0,0,1-.63-1.43,2.15,2.15,0,0,1,.06-1,2.25,2.25,0,0,1,1-1.34,2,2,0,0,1,1.75-.21,3.54,3.54,0,0,1,2.15,2,6.64,6.64,0,0,1,.53,3.94l0,.27,1,.27,1.71-6.74-.92-.26-.12.24a2.74,2.74,0,0,1-.49.84.23.23,0,0,1-.23,0c-.06,0-.27-.1-.78-.64a7.49,7.49,0,0,0-1.15-1,5.38,5.38,0,0,0-1.44-.65,4.61,4.61,0,0,0-4,.69,6.56,6.56,0,0,0-2.64,6.17,6.87,6.87,0,0,0,.86,2.43,17.89,17.89,0,0,0,2.39,3,12.41,12.41,0,0,1,1.58,1.93,3.51,3.51,0,0,1,.49,1.28,2.72,2.72,0,0,1-.06,1.21,2.64,2.64,0,0,1-1.13,1.55,2.35,2.35,0,0,1-2,.24,3.89,3.89,0,0,1-2.37-2.2,8.68,8.68,0,0,1-.61-4.8l0-.26-.94-.26-2.07,7.52.89.25.13-.18a1.67,1.67,0,0,1,.63-.6.81.81,0,0,1,.46-.09,1.81,1.81,0,0,1,.67.45,9.08,9.08,0,0,0,1.44,1.13,5.48,5.48,0,0,0,5.78-.09,6.31,6.31,0,0,0,2.68-3.73,6.4,6.4,0,0,0,0-3.63,11.39,11.39,0,0,0-2.75-4.09Z"/><path class="cls-3" d="M126.85,64.44a1.13,1.13,0,0,1-.12-.48c0-.05,0-.1,0-.15a8,8,0,0,1,.77-1.57s6.14-10.73,7.15-12.48l.74.42a2.89,2.89,0,0,1,1.07.86,3.19,3.19,0,0,1,.38,1.51v0a8.71,8.71,0,0,1-.56,2.53l-.07.24.83.48,2.88-5-12.58-7.2-.15.26-2.72,4.76.85.49.16-.22a5.67,5.67,0,0,1,2.56-2.08,2.56,2.56,0,0,1,2.12.39l.74.42c-.3.51-7.14,12.49-7.14,12.49a6.27,6.27,0,0,1-.94,1.4,1,1,0,0,1-.56.29,1.48,1.48,0,0,1-.92-.25l-.7-.4-.56,1,7.54,4.32.55-1-.7-.4a1.39,1.39,0,0,1-.63-.62Z"/><path class="cls-4" d="M126.85,64.44a1.13,1.13,0,0,1-.12-.48c0-.05,0-.1,0-.15a8,8,0,0,1,.77-1.57s6.14-10.73,7.15-12.48l.74.42a2.89,2.89,0,0,1,1.07.86,3.19,3.19,0,0,1,.38,1.51v0a8.71,8.71,0,0,1-.56,2.53l-.07.24.83.48,2.88-5-12.58-7.2-.15.26-2.72,4.76.85.49.16-.22a5.67,5.67,0,0,1,2.56-2.08,2.56,2.56,0,0,1,2.12.39l.74.42c-.3.51-7.14,12.49-7.14,12.49a6.27,6.27,0,0,1-.94,1.4,1,1,0,0,1-.56.29,1.48,1.48,0,0,1-.92-.25l-.7-.4-.56,1,7.54,4.32.55-1-.7-.4a1.39,1.39,0,0,1-.63-.62Z"/><path class="cls-3" d="M149.67,62.68a5.46,5.46,0,0,1-.9,2.63,20.52,20.52,0,0,1-3.67,4.23A19.42,19.42,0,0,1,141,72.61a5.84,5.84,0,0,1-3,.81,2.41,2.41,0,0,1-1.64-.85,2.67,2.67,0,0,1-.59-2.77c.48-1.67,1.91-3.63,4.23-5.81a17.37,17.37,0,0,1,5.08-3.61c1.69-.64,2.93-.5,3.82.42a2.67,2.67,0,0,1,.73,1.81v.07Zm2.51,3.42a7.33,7.33,0,0,0,.08-1.13,7.17,7.17,0,0,0-2.32-5.29,7,7,0,0,0-6.12-2.45,11.15,11.15,0,0,0-6.94,3.24,12.15,12.15,0,0,0-3.62,6,7.57,7.57,0,0,0,2,7.35A7.46,7.46,0,0,0,142.54,76a12.28,12.28,0,0,0,6-3.22,11.13,11.13,0,0,0,3.66-6.7Z"/><path class="cls-4" d="M149.67,62.68a5.46,5.46,0,0,1-.9,2.63,20.52,20.52,0,0,1-3.67,4.23A19.42,19.42,0,0,1,141,72.61a5.84,5.84,0,0,1-3,.81,2.41,2.41,0,0,1-1.64-.85,2.67,2.67,0,0,1-.59-2.77c.48-1.67,1.91-3.63,4.23-5.81a17.37,17.37,0,0,1,5.08-3.61c1.69-.64,2.93-.5,3.82.42a2.67,2.67,0,0,1,.73,1.81v.07Zm2.51,3.42a7.33,7.33,0,0,0,.08-1.13,7.17,7.17,0,0,0-2.32-5.29,7,7,0,0,0-6.12-2.45,11.15,11.15,0,0,0-6.94,3.24,12.15,12.15,0,0,0-3.62,6,7.57,7.57,0,0,0,2,7.35A7.46,7.46,0,0,0,142.54,76a12.28,12.28,0,0,0,6-3.22,11.13,11.13,0,0,0,3.66-6.7Z"/><path class="cls-3" d="M149.93,59.66a0,0,0,0,0,0,0h0l0,0Z"/><path class="cls-4" d="M149.93,59.66a0,0,0,0,0,0,0h0l0,0Z"/><path class="cls-3" d="M165.23,90a1.83,1.83,0,0,1,.8.13,1,1,0,0,1,.43.42l.14.24,1-.44-1.86-4.2-1,.45.11.27a2.13,2.13,0,0,1,.2.81.48.48,0,0,1,0,.21,1,1,0,0,1-.55.5l-.77.25-1.76.25-7.49.9,6.38-5.56A9.15,9.15,0,0,1,162.36,83l.37-.06A.39.39,0,0,1,163,83a2.7,2.7,0,0,1,.54.87l.12.27,1-.45-3.24-7.34-1,.45.12.28a2,2,0,0,1,.21.78.53.53,0,0,1,0,.13,1.74,1.74,0,0,1-.41.78,14.71,14.71,0,0,1-1.66,1.6l-1.47,1.28-6.66.62,6.56-5.89a9.94,9.94,0,0,1,1.78-1.37.61.61,0,0,1,.51,0c.07,0,.27.15.54.7l.12.27,1-.45-2.95-6.67-.28.12-.7.31.08.26a1,1,0,0,1-.07.91A17.78,17.78,0,0,1,155,72.57L142.65,83.65l.34.78,12.35-1.06-9.28,8,.36.81,16.56-2,2.25-.25Z"/><path class="cls-4" d="M165.23,90a1.83,1.83,0,0,1,.8.13,1,1,0,0,1,.43.42l.14.24,1-.44-1.86-4.2-1,.45.11.27a2.13,2.13,0,0,1,.2.81.48.48,0,0,1,0,.21,1,1,0,0,1-.55.5l-.77.25-1.76.25-7.49.9,6.38-5.56A9.15,9.15,0,0,1,162.36,83l.37-.06A.39.39,0,0,1,163,83a2.7,2.7,0,0,1,.54.87l.12.27,1-.45-3.24-7.34-1,.45.12.28a2,2,0,0,1,.21.78.53.53,0,0,1,0,.13,1.74,1.74,0,0,1-.41.78,14.71,14.71,0,0,1-1.66,1.6l-1.47,1.28-6.66.62,6.56-5.89a9.94,9.94,0,0,1,1.78-1.37.61.61,0,0,1,.51,0c.07,0,.27.15.54.7l.12.27,1-.45-2.95-6.67-.28.12-.7.31.08.26a1,1,0,0,1-.07.91A17.78,17.78,0,0,1,155,72.57L142.65,83.65l.34.78,12.35-1.06-9.28,8,.36.81,16.56-2,2.25-.25Z"/><path class="cls-3" d="M168.77,105l-1.11.08,0,.31c0,.12,0,.21,0,.31a1.53,1.53,0,0,1-.55,1.29,4.15,4.15,0,0,1-2.14.52l-7.06.52,10.46-7.87-.44-6-.31,0-.79.06,0,.3v.11a1.8,1.8,0,0,1-.16.82,3.26,3.26,0,0,1-.88.84l-.44.34-13.34,1a3.26,3.26,0,0,1-2-.29,2,2,0,0,1-.65-1.5v-.31l-1.11.09.45,6.13,1.11-.08-.06-.66V101a1.74,1.74,0,0,1,.41-1.12,2.69,2.69,0,0,1,1.92-.66l11.11-.82-14.38,11,.06.87L165.13,109a6.28,6.28,0,0,1,1.83,0,1.26,1.26,0,0,1,.68.36,2.67,2.67,0,0,1,.43,1.14l.06.25,1.05-.07-.41-5.69Z"/><path class="cls-4" d="M168.77,105l-1.11.08,0,.31c0,.12,0,.21,0,.31a1.53,1.53,0,0,1-.55,1.29,4.15,4.15,0,0,1-2.14.52l-7.06.52,10.46-7.87-.44-6-.31,0-.79.06,0,.3v.11a1.8,1.8,0,0,1-.16.82,3.26,3.26,0,0,1-.88.84l-.44.34-13.34,1a3.26,3.26,0,0,1-2-.29,2,2,0,0,1-.65-1.5v-.31l-1.11.09.45,6.13,1.11-.08-.06-.66V101a1.74,1.74,0,0,1,.41-1.12,2.69,2.69,0,0,1,1.92-.66l11.11-.82-14.38,11,.06.87L165.13,109a6.28,6.28,0,0,1,1.83,0,1.26,1.26,0,0,1,.68.36,2.67,2.67,0,0,1,.43,1.14l.06.25,1.05-.07-.41-5.69Z"/><path class="cls-3" d="M46.64,97l-.08-.07-2.73-.18.77.61A9.94,9.94,0,0,1,47.06,100a4.66,4.66,0,0,1,.57,2.56,3.71,3.71,0,0,1-1.17,2.6,6.29,6.29,0,0,1-3.14,1.34,19.12,19.12,0,0,1-4.61.2,14.38,14.38,0,0,1-4.58-1,5.46,5.46,0,0,1-2.43-1.84,3.77,3.77,0,0,1-.78-2.52,4,4,0,0,1,1.48-2.8A7.27,7.27,0,0,1,36.33,97l.26,0,.07-1-7.21-.5,0,.31,0,.67.27.06a1.75,1.75,0,0,1,.87.34.45.45,0,0,1,.19.4,3.85,3.85,0,0,1-.56,1.17A8.56,8.56,0,0,0,29,102a7.71,7.71,0,0,0,1.11,4.44,9.65,9.65,0,0,0,3.69,3.49A12.38,12.38,0,0,0,39,111.45a12.21,12.21,0,0,0,5.07-.73,8.07,8.07,0,0,0,5.43-7.27A7.15,7.15,0,0,0,49,100a9.11,9.11,0,0,0-2.32-3Z"/><path class="cls-3" d="M51.22,88.92A2.68,2.68,0,0,1,49,90.63c-1.72.27-4.09-.18-7.05-1.35a17.28,17.28,0,0,1-5.44-3.07c-1.3-1.25-1.7-2.44-1.23-3.63a2.64,2.64,0,0,1,1.32-1.43,5.42,5.42,0,0,1,2.83-.34,20.61,20.61,0,0,1,5.38,1.52,19.81,19.81,0,0,1,4.52,2.37,5.91,5.91,0,0,1,2,2.37,2.48,2.48,0,0,1-.06,1.85ZM46.27,77.85a11.21,11.21,0,0,0-7.63-.46,7.19,7.19,0,0,0-4.86,4.77A6.82,6.82,0,0,0,33.14,85a7.72,7.72,0,0,0,1,3.72,11.16,11.16,0,0,0,5.9,4.9,12.05,12.05,0,0,0,6.91.74,7.53,7.53,0,0,0,5.82-4.88,7.45,7.45,0,0,0-1.09-7.6,12.11,12.11,0,0,0-5.44-4Z"/><path class="cls-3" d="M57.07,75.53c-1.71-.29-3.81-1.48-6.25-3.53a17.63,17.63,0,0,1-4.17-4.65c-.82-1.6-.83-2.86,0-3.83a2.56,2.56,0,0,1,1.7-.94,5.4,5.4,0,0,1,2.79.58,21.07,21.07,0,0,1,4.62,3.17A18.76,18.76,0,0,1,59.27,70a5.65,5.65,0,0,1,1.14,2.89,2.42,2.42,0,0,1-.65,1.72,2.65,2.65,0,0,1-2.69.9Zm1.55-13a11.13,11.13,0,0,0-7.08-2.88,7.23,7.23,0,0,0-6.13,3,6.82,6.82,0,0,0-1.89,4.77A8.93,8.93,0,0,0,43.68,69a11.12,11.12,0,0,0,4,6.53A12,12,0,0,0,54,78.44a7.53,7.53,0,0,0,7.08-2.76,7.44,7.44,0,0,0,1.4-7.54,12.09,12.09,0,0,0-3.86-5.57Z"/><path class="cls-3" d="M66.78,55.57a2.19,2.19,0,0,1-1.08,1.78l-.24.14-4.2-6.41.13-.08a2.31,2.31,0,0,1,2.15-.37,4.91,4.91,0,0,1,2.19,2.06,5.48,5.48,0,0,1,1,2.75v.13Zm5.31,8.6a2.57,2.57,0,0,1-1.21.55.87.87,0,0,1-.63-.18,6.16,6.16,0,0,1-1.13-1.47l-2.75-4.19a13.19,13.19,0,0,0,2.74-2.21,5,5,0,0,0,1.23-3.08V53.4a5.73,5.73,0,0,0-1-3.16,5.27,5.27,0,0,0-3.4-2.38c-1.41-.3-3.11.18-5,1.44L55,53.17l.61.92.26-.17a2.76,2.76,0,0,1,1.22-.56,1,1,0,0,1,.62.18A7,7,0,0,1,58.84,55l6.77,10.34A6.61,6.61,0,0,1,66.52,67a.94.94,0,0,1-.08.65,2.85,2.85,0,0,1-1,.89l-.26.17.61.92L73,64.94,72.34,64l-.25.16Z"/><path class="cls-3" d="M87,52l0,.24a7.1,7.1,0,0,1-.57,4,4.5,4.5,0,0,1-2.71,2.1l-.88.3a1.29,1.29,0,0,1-.78.08.93.93,0,0,1-.42-.31A9.31,9.31,0,0,1,81,56.63S79.74,53,79.37,51.87a2.81,2.81,0,0,1,1.24-.11,2.63,2.63,0,0,1,1.24.91,9.31,9.31,0,0,1,1.33,2.27l.11.26.94-.32L80.9,44.8l-.94.32.06.27a10.42,10.42,0,0,1,.35,2.42,4.19,4.19,0,0,1-.09.91,2,2,0,0,1-1.44,1.52l-2.23-6.75,1.19-.4a7.34,7.34,0,0,1,2.26-.5,3.33,3.33,0,0,1,1.85.65,7.75,7.75,0,0,1,1.72,2.4l.12.23.93-.3-2-5.93-.29.11L69.89,43.88l.34,1,.78-.25a1.38,1.38,0,0,1,1,0,1.13,1.13,0,0,1,.51.47c0,.1.19.44.53,1.44L77,58.49a6.68,6.68,0,0,1,.43,1.63,1,1,0,0,1-.16.62,1.5,1.5,0,0,1-.8.52l-.77.25.34,1.05,13.21-4.35-1.37-6.58L87,52Z"/><path class="cls-3" d="M95.77,39.73l.91,0a3,3,0,0,1,2.46.86,4.78,4.78,0,0,1,.82,3v.19a5.18,5.18,0,0,1-.37,2.09A2.28,2.28,0,0,1,98.52,47a6.07,6.07,0,0,1-2.26.37h-.35l-.14-7.59Zm5.87,17.88,5.28-.11,0-1.13h-.29a1.39,1.39,0,0,1-.87-.37,8.37,8.37,0,0,1-1-1.48s-3.33-5.53-3.64-6.07a4.92,4.92,0,0,0,2-1.28,5.37,5.37,0,0,0,1.23-3.57v-.15a5.87,5.87,0,0,0-.93-3.16A4.51,4.51,0,0,0,101,38.43,13.43,13.43,0,0,0,96.81,38l-7.49.16,0,1.1h.3a2.86,2.86,0,0,1,1.33.16,1,1,0,0,1,.44.48,6.93,6.93,0,0,1,.17,1.83l.24,12.45a7,7,0,0,1-.1,1.82,1,1,0,0,1-.42.49,2.65,2.65,0,0,1-1.31.23h-.31l0,1.09,8.6-.16V56.56H98a2.67,2.67,0,0,1-1.31-.17,1,1,0,0,1-.44-.48,6.72,6.72,0,0,1-.17-1.82S96,50.13,96,49h.54c.17.3,5.15,8.61,5.15,8.61Z"/><path class="cls-3" d="M116.8,47.83a20.29,20.29,0,0,1-1.92-2.21,4.48,4.48,0,0,1-.63-1.43,2.15,2.15,0,0,1,.06-1,2.25,2.25,0,0,1,1-1.34,2,2,0,0,1,1.75-.21,3.54,3.54,0,0,1,2.15,2,6.64,6.64,0,0,1,.53,3.94l0,.27,1,.27,1.71-6.74-.92-.26-.12.24a2.74,2.74,0,0,1-.49.84.23.23,0,0,1-.23,0c-.06,0-.27-.1-.78-.64a7.49,7.49,0,0,0-1.15-1,5.38,5.38,0,0,0-1.44-.65,4.61,4.61,0,0,0-4,.69,6.56,6.56,0,0,0-2.64,6.17,6.87,6.87,0,0,0,.86,2.43,17.89,17.89,0,0,0,2.39,3,12.41,12.41,0,0,1,1.58,1.93,3.51,3.51,0,0,1,.49,1.28,2.72,2.72,0,0,1-.06,1.21,2.64,2.64,0,0,1-1.13,1.55,2.35,2.35,0,0,1-2,.24,3.89,3.89,0,0,1-2.37-2.2,8.68,8.68,0,0,1-.61-4.8l0-.26-.94-.26-2.07,7.52.89.25.13-.18a1.67,1.67,0,0,1,.63-.6.81.81,0,0,1,.46-.09,1.81,1.81,0,0,1,.67.45,9.08,9.08,0,0,0,1.44,1.13,5.48,5.48,0,0,0,5.78-.09,6.31,6.31,0,0,0,2.68-3.73,6.4,6.4,0,0,0,0-3.63,11.39,11.39,0,0,0-2.75-4.09Z"/><path class="cls-3" d="M126.85,64.44a1.13,1.13,0,0,1-.12-.48c0-.05,0-.1,0-.15a8,8,0,0,1,.77-1.57s6.14-10.73,7.15-12.48l.74.42a2.89,2.89,0,0,1,1.07.86,3.19,3.19,0,0,1,.38,1.51v0a8.71,8.71,0,0,1-.56,2.53l-.07.24.83.48,2.88-5-12.58-7.2-.15.26-2.72,4.76.85.49.16-.22a5.67,5.67,0,0,1,2.56-2.08,2.56,2.56,0,0,1,2.12.39l.74.42c-.3.51-7.14,12.49-7.14,12.49a6.27,6.27,0,0,1-.94,1.4,1,1,0,0,1-.56.29,1.48,1.48,0,0,1-.92-.25l-.7-.4-.56,1,7.54,4.32.55-1-.7-.4a1.39,1.39,0,0,1-.63-.62Z"/><path class="cls-3" d="M149.67,62.68a5.46,5.46,0,0,1-.9,2.63,20.52,20.52,0,0,1-3.67,4.23A19.42,19.42,0,0,1,141,72.61a5.84,5.84,0,0,1-3,.81,2.41,2.41,0,0,1-1.64-.85,2.67,2.67,0,0,1-.59-2.77c.48-1.67,1.91-3.63,4.23-5.81a17.37,17.37,0,0,1,5.08-3.61c1.69-.64,2.93-.5,3.82.42a2.67,2.67,0,0,1,.73,1.81v.07Zm2.51,3.42a7.33,7.33,0,0,0,.08-1.13,7.17,7.17,0,0,0-2.32-5.29,7,7,0,0,0-6.12-2.45,11.15,11.15,0,0,0-6.94,3.24,12.15,12.15,0,0,0-3.62,6,7.57,7.57,0,0,0,2,7.35A7.46,7.46,0,0,0,142.54,76a12.28,12.28,0,0,0,6-3.22,11.13,11.13,0,0,0,3.66-6.7Z"/><path class="cls-3" d="M149.93,59.66a0,0,0,0,0,0,0h0l0,0Z"/><path class="cls-3" d="M165.23,90a1.83,1.83,0,0,1,.8.13,1,1,0,0,1,.43.42l.14.24,1-.44-1.86-4.2-1,.45.11.27a2.13,2.13,0,0,1,.2.81.48.48,0,0,1,0,.21,1,1,0,0,1-.55.5l-.77.25-1.76.25-7.49.9,6.38-5.56A9.15,9.15,0,0,1,162.36,83l.37-.06A.39.39,0,0,1,163,83a2.7,2.7,0,0,1,.54.87l.12.27,1-.45-3.24-7.34-1,.45.12.28a2,2,0,0,1,.21.78.53.53,0,0,1,0,.13,1.74,1.74,0,0,1-.41.78,14.71,14.71,0,0,1-1.66,1.6l-1.47,1.28-6.66.62,6.56-5.89a9.94,9.94,0,0,1,1.78-1.37.61.61,0,0,1,.51,0c.07,0,.27.15.54.7l.12.27,1-.45-2.95-6.67-.28.12-.7.31.08.26a1,1,0,0,1-.07.91A17.78,17.78,0,0,1,155,72.57L142.65,83.65l.34.78,12.35-1.06-9.28,8,.36.81,16.56-2,2.25-.25Z"/><path class="cls-3" d="M168.77,105l-1.11.08,0,.31c0,.12,0,.21,0,.31a1.53,1.53,0,0,1-.55,1.29,4.15,4.15,0,0,1-2.14.52l-7.06.52,10.46-7.87-.44-6-.31,0-.79.06,0,.3v.11a1.8,1.8,0,0,1-.16.82,3.26,3.26,0,0,1-.88.84l-.44.34-13.34,1a3.26,3.26,0,0,1-2-.29,2,2,0,0,1-.65-1.5v-.31l-1.11.09.45,6.13,1.11-.08-.06-.66V101a1.74,1.74,0,0,1,.41-1.12,2.69,2.69,0,0,1,1.92-.66l11.11-.82-14.38,11,.06.87L165.13,109a6.28,6.28,0,0,1,1.83,0,1.26,1.26,0,0,1,.68.36,2.67,2.67,0,0,1,.43,1.14l.06.25,1.05-.07-.41-5.69Z"/><path class="cls-3" d="M169.45,122v-6.49h2l1.17,4.47,1.18-4.47h2.06V122h-1.25v-5.18L173.24,122h-1.18l-1.38-5.18V122Zm-3.74,0v-5.37h-2v-1.12H169v1.12H167V122Z"/><g class="cls-5"><path class="cls-6" d="M141,73.06c-.59-.6-3-2-4.23-1.62s-1,.44-.79,1.09a3.91,3.91,0,0,1,2.48.74c-.93.7-2.3,0-3.42.38-.19.08-.39.65-.26.72.82.67,2.22.17,3,1-.8,1.75-3.09.87-4.59,1-.83,0-.66.71-.39,1.08.64.53,2.6-.39,3.44.44.21.2-.21.79-.53.92-1.51.8-4.12-.73-4.87,1.33,1,1,2.52-.41,3.48.63-.56,2.12-3.21.6-4.67,1.34a1,1,0,0,0-.35,1.09c.39.45,1.84,0,2.95-.1a.79.79,0,0,1,.7.91,1.34,1.34,0,0,1-.73.7c-1.38.43-5.28-.28-4.28,1.88.52.51,2-.63,3.11-.28.82.21.28,1.23-.24,1.47-1.13.44-2.37.36-3.56.75-.52.16-1,1.11-.55,1.56,1.06.11,2-.59,3-.41.65.15.52,1,0,1.32-1.39,1-5,.31-4.08,2.5,1.24.34,2.69-1,3.71-.2-.19.44-.27,1.09-.79,1.41-1.18.54-4,.5-3.43,2.32,1.29.35,2.22-.92,3.6-.72.12,0,.39.28.39.32-.36,1.66-2.39,2.05-3.78,2.6-.63.23-.63,1.12-.54,1.69.12.22.32.55.56.42,1.14-.68,2-1.89,3.25-1.87.32,0,.28.7.19.89-.75,1.69-4.56,2.64-3.54,3.82.91.68,2.12-1.77,3.44-1.09-.17,1.52-2.12,2.07-3.06,3.22-.13.14-.14,1,.23,1,1,.1,1.8-1.07,2.84-1.3,1,1.75-1.59,2.22-2.34,3.44-.13.31.14.69.25,1,1.17,0,2.51-2.35,3.28-.73-.28,1.62-3.29,1.63-2.33,3.39,1.29.06,2.06-2.22,3.21-.92.11.06.11.39,0,.52-.43,1.28-3.7,2.18-2.28,3.23,1.22,0,2.36-2.14,3.4-.77-.36,1.66-4.23,2.37-2.09,4,1.11-.51,1.82-1.73,3-2,.58-.12.71.7.55,1-.37,1-1.49,1.32-2.11,2.17-.39.52.12,1.79.77,1.43.94-.58,2.13-2.49,3.16-1.34-.4,1.54-2.38,2.29-2.07,4,.18,0,.31.19.38.18,1.12-.27,1.66-1.43,2.64-1.93.65-.31,1.35.82,1,1.41-.45,1-1.42,1.29-2,2.25-.17.5.53.66.92.89.66.28,2.84-1,4-1.71s3-2.73,3.31-3.62c.54-1.67-3.25.15-4.94-.4-.53-.14-1.16-1-.38-1.24,1-.17,2,.35,3,.18a.32.32,0,0,0,.17-.37c-1.13-1.64-3.58-.13-5.23-1.38-.29-.14-.28-.52-.53-.65,1-.89,2.61-.11,3.93-.46.12-.37-.32-.66-.39-1.05-1.69-.45-3.93.46-5.19-1.15-.15-.11-.15-.59.13-.52,1.56.28,2.2.22,3.52.44.65.21.33-.94.09-1.4-1.7-.17-4.08.26-5.11-1.5,1-1.14,2.82.49,4.14-.06.14-.06.14-.57,0-.71-1.51-1.31-4,.07-5.2-1.69-.4-.44.3-1.09.68-1.09,1.18,0,2.28.82,3.4.64.38,0,.31-.79.2-.88-1.29-1.28-3.59-.4-4.88-1.68-.39-.37-.65-1.14,0-1.26,1.37-.34,2.59.84,4.08.85,0-2.12-3.45-1.34-4.59-3a.78.78,0,0,1,.55-1.07c1.29-.17,2.32,1,3.65.81.25,0,.26-.57.12-.7-1.28-1.22-3.95-1.21-4.12-3.26.79-.64,2.62.55,3.92.82.93-2.1-2.34-1.6-3.45-2.43a1,1,0,0,1,.16-1.61c1.26-.5,2.14,1.27,3.53.71.33-.13.46-1,.21-1.31a28.75,28.75,0,0,1-3.27-.8c-.76-.19-.69-1.44-.23-2,1.45.06,2.61,1.7,4.05,1.19a.89.89,0,0,0,.14-1.4c-1.16-.72-2.91-1-3.23-2.09.28-.07,0-.6.28-.54a12,12,0,0,1,3.11,1.25c.67.24,1-.93.7-1.11-.93-.81-2.32-1.06-3.08-2.11a1.64,1.64,0,0,1-.38-.71c-.06-.39.21-1,1-.68,1.24.46,2.06,2,3.38,1.52.27-1.66-1.93-2-2.57-3.33-.37-.65-.1-1.21.72-1.48,1.1.48,1.49,1.39,2.28,2.17.13.08.73.08.8-.24.08-1.6-2.05-2.33-1.93-4,1.2-1.17,2,1.63,3.27,1.22a1,1,0,0,0,.13-.8c-.57-1.09-2.56-2.61-1.25-3.86.92.65,1.17,1.81,2.18,2.47a.38.38,0,0,0,.55-.2c.29-1.66-1.42-2.64-1.39-4.18,0-.14.27-.25.39-.27.78.4,1,1.32,1.68,1.78.32.25,1.43,1.12,1.17-.38-.09-1.44-.74-2.26-2.35-3.82Z"/><path class="cls-6" d="M58.88,72.53c.53-.53,3-2,4.2-1.43s1,.45.78,1a4,4,0,0,0-2.51.73c.93.73,2.23.1,3.4.49.17.06.38.6.23.73-.84.64-2.21.09-3,.91.77,1.76,3.06,1,4.56,1.09.86.1.71.68.39,1-.65.58-2.62-.49-3.47.39-.2.2.17.79.49.91,1.57.86,4.13-.56,4.75,1.5-.94.94-2.41-.48-3.4.53.55,2.13,3.21.67,4.62,1.49.32.12.37.65.3,1-.37.5-1.82,0-2.84-.12-.5-.06-1,.51-.83.83a1.66,1.66,0,0,0,.73.77c1.35.49,5.3-.1,4.22,1.92-.54.6-2-.59-3.06-.36-.87.26-.37,1.28.15,1.51,1.11.52,2.35.46,3.52.86.51.14,1,1.12.49,1.62-1,.06-1.94-.67-3-.49-.65.11-.54.89-.08,1.23,1.37,1.11,5,.51,4,2.71-1.25.23-2.72-1.16-3.73-.4.19.51.25,1.17.77,1.49,1.17.59,4,.65,3.35,2.43-1.3.31-2.19-1-3.58-.9a.68.68,0,0,0-.4.42c.33,1.64,2.34,2.08,3.7,2.61.65.27.62,1.21.41,1.81-.06.13-.24.5-.58.3-1-.65-1.79-1.88-3.09-1.9-.41,0-.28.62-.21.89.67,1.68,4.45,2.69,3.39,3.86-.91.68-2.07-1.79-3.35-1.22.08,1.63,2.05,2.16,2.94,3.34.13.18.11,1-.29,1.09-1,0-1.75-1.2-2.79-1.42-1,1.73,1.46,2.29,2.18,3.53.17.25-.07.7-.22,1-1.18-.1-2.4-2.44-3.25-.91C69,111.19,72,111.31,71,113c-1.31,0-1.91-2.28-3.18-1-.13.08-.13.34,0,.52.37,1.3,3.62,2.3,2.19,3.32-1.27,0-2.35-2.24-3.4-.9.29,1.67,4.12,2.53,2,4-1.11-.52-1.74-1.77-3-2.1-.57-.14-.72.69-.58,1,.43,1,1.48,1.38,2.06,2.2.38.53-.16,1.82-.8,1.42-.91-.59-2.07-2.54-3.12-1.4.36,1.5,2.32,2.34,2,4-.2-.05-.35.2-.36.11-1.14-.26-1.64-1.49-2.64-1.94-.64-.33-1.39.69-1,1.39.46,1,1.43,1.32,1.94,2.3.18.43-.55.62-.94.87-.63.25-2.79-1.08-3.89-1.87S55,122.17,55,121.28c.1-2.83,3.24,1.52,5-.27.41-.36,1.19-1,.42-1.2-1-.28-2,.29-3,0-.11,0-.26-.21-.18-.34,1.19-1.58,3.57,0,5.31-1.19.24-.2.25-.51.53-.73-1-.83-2.6-.09-3.92-.49-.12-.44.33-.65.41-1,1.69-.47,3.91.5,5.25-1,.13-.13.13-.57-.12-.57a35.41,35.41,0,0,1-3.53.39c-.66.18-.32-1,0-1.4,1.72-.1,4.05.32,5.13-1.35-1-1.18-2.83.41-4.14-.18-.11-.07-.11-.64,0-.71,1.59-1.26,4,.14,5.25-1.51.4-.54-.25-1.12-.62-1.11-1.2-.09-2.31.67-3.4.52-.42-.06-.33-.79-.2-.91,1.31-1.27,3.59-.27,4.92-1.53.42-.32.68-1.09.1-1.23-1.45-.4-2.76.76-4.19.72.07-2.13,3.46-1.24,4.68-2.82a.81.81,0,0,0-.51-1.1c-1.31-.22-2.37.93-3.68.7-.26-.07-.25-.57-.1-.7,1.31-1.19,4-1.09,4.2-3.14-.76-.66-2.61.45-3.93.62-.88-2.07,2.39-1.43,3.52-2.25A1,1,0,0,0,68,95.87c-1.23-.53-2.17,1.18-3.54.58a1,1,0,0,1-.16-1.29,24,24,0,0,0,3.27-.77c.77-.12.75-1.35.28-1.93-1.44,0-2.63,1.57-4.07,1.1a.87.87,0,0,1-.1-1.41c1.17-.71,3-.93,3.3-2-.26-.07,0-.57-.26-.51a12.63,12.63,0,0,0-3.14,1.06c-.67.23-1-.86-.65-1.14.93-.75,2.32-.9,3.18-1.92a2,2,0,0,0,.3-.71.66.66,0,0,0-.94-.78c-1.25.5-2.12,2-3.41,1.51-.24-1.76,2-2,2.65-3.26.4-.64.13-1.24-.7-1.49-1.1.43-1.52,1.33-2.31,2-.13.13-.73.12-.78-.21,0-1.62,2.12-2.27,2-3.94-1.18-1.19-2,1.5-3.3,1-.07,0-.23-.39-.11-.71.54-1.09,2.72-2.59,1.36-3.83-.92.62-1.21,1.77-2.26,2.41a.4.4,0,0,1-.52-.2c-.2-1.67,1.49-2.65,1.51-4.22,0-.14-.26-.28-.4-.21-.77.31-1.06,1.28-1.71,1.73-.34.23-1.46,1-1.18-.42s.82-2.3,2.55-3.8Z"/></g><path class="cls-7" d="M125.94,104.1c-.41-3.85-1.45-5.89-3.59-7.44-1.27-.94-2.3-1.09-2.44-1.36h0c-.16-.43.23-.56.46-2.3.14-1.09-.11-2.24.22-2.31s2.15.26,2.59-.49c.34-.59,1.07-1.14.56-1.18s-3.39-.12-3.39-.33c0-.9.75-3.51-4.59-3.57-2.58,0-4.42.18-4.5,3.85,0,.1.35,0,.36.09a2.91,2.91,0,0,0,.05.49c.08.7-.43.81-.89,2-.19.45.88.34.89.45a2.09,2.09,0,0,1,0,.62c-.06.21.16.34.09.42s0,.24-.07.32.15.31.22.51-.26.53-.14.88c.42,1.27,2.89.3,3.6,1.71a3.25,3.25,0,0,1,0,1c0,.36-.5.64-1.09.87-.81.29-2,.49-2.21,1.77-.5,2.84-1.46,5.27-1.93,5.11s-2.14-.67-2-1.32a12.15,12.15,0,0,0-.93-4.5c-.8-2.2-2.73-1.39-2.8-.74-.13,1.31-2.32-.37-3.58.37-2,1.15-1.83,3.77-1,5.68s4.87,2.23,5.68,1.22c.25-.31,1.24,1.13,2.11,2.1a25.86,25.86,0,0,0,1.62,2.16c.35.33,2-.24,1.66-.07s-1.46.75-2,1a18.8,18.8,0,0,0-2.77,1.87,2.84,2.84,0,0,0-1.15,3.31c.23,1.33,4.47,2.57,4.92,2.57a64.6,64.6,0,0,1,6.55,4c.45.37.23.81-.22,1.71s.73,1.39,1.62,1.54,2.15-1.62,2.22-2.14-.16-.74.29-1.11a3.94,3.94,0,0,0,1-2.57c0-1-2.21-.74-2.58-.74s-.73-.44-1.25-.81,2.52-.08,3.47.07a3.53,3.53,0,0,0,3.31-1.91c.81-1.47,2.44-5.91,1.7-12.91ZM95,131c-.06-.56-5.14-11.25-5.77-11.88s-1.13-2.41-1.83-3.24a55.12,55.12,0,0,1-4.35-6.9c-.81-1.83-.81-1.4-1.42-.65a75.42,75.42,0,0,0-4.18,6.78c-1.23,2.34-3.09,6.28-4.44,9.36a11.21,11.21,0,0,0-.74,2.09c-.12.74-.36,2.83-.36,2.83l-.62.25.62.25a13.74,13.74,0,0,0,.12,2c.12.5-.5,1-1,1.11a8,8,0,0,1-3.33-.49A17.37,17.37,0,0,1,65.89,131s0-1.1.49-1.47A4,4,0,0,1,68,129v-.49a20.51,20.51,0,0,1,.24-3.21c.25-1.11,1.81-5.48,1.81-5.48.11-.42,1.79-6.82,2.08-7.7a12.46,12.46,0,0,1,1.51-3.59c.42-.42.53-.94,1-2.49s3-5,2.8-5.74a13.32,13.32,0,0,1,0-3c0-.73.64-1.47.18-2.77-1-2.79-1.49-8-.86-10.4S82.15,82,82.59,82c-.53,0-1-.78-1-.78-.46-.62-.09-2.89-.09-3.44A5.56,5.56,0,0,1,82,76.3a1.15,1.15,0,0,1,.67-1,11.19,11.19,0,0,0-2-.61c-.66-.32,1-.15,1.75-.23a2.17,2.17,0,0,0,1.31-.64,3.22,3.22,0,0,1,3.46-1c2.35.69,2.16,3.33,2,4.42,0,0-.09.07-.1.11s.07.07.06.11,0,.22-.06.25c-.14.75-1,3.32-2.16,4-.59.37,0,.61,1.78.83,1.43.17,1.43.43,1.71.62a1.92,1.92,0,0,0,.32.14l13.67-11.08a1.35,1.35,0,0,1,1.37.42,1.67,1.67,0,0,1,.4,1.44L91.87,84.36c1.3.92,2.5,3,3.79,4.24,2.46,2.41,2.17,4.63,2,5.33s-.66.68-1.73.68a10.77,10.77,0,0,1-3.63-1.24c-.64-.35-1.38,1.89-1.73,2.51s-.41,3.35-.2,5.07,0,4.62.66,6.77c.28.83,2,6.74,2,7.15a32.91,32.91,0,0,0,1.24,3.94c.52,1.56,2.77,7.58,2.91,8.13.08.32.62,1.57,1.13,2.68l-.1.74.37.09a3,3,0,0,1,.47,1.67,4.63,4.63,0,0,1-.38,1.38,4.23,4.23,0,0,1-1.84.55c-.65-.09-.93.06-1.2-.21a12.58,12.58,0,0,1-.93-2.19L95,131Z"/><path class="cls-3" d="M125.94,104.1c-.41-3.85-1.45-5.89-3.59-7.44-1.27-.94-2.3-1.09-2.44-1.36h0c-.16-.43.23-.56.46-2.3.14-1.09-.11-2.24.22-2.31s2.15.26,2.59-.49c.34-.59,1.07-1.14.56-1.18s-3.39-.12-3.39-.33c0-.9.75-3.51-4.59-3.57-2.58,0-4.42.18-4.5,3.85,0,.1.35,0,.36.09a2.91,2.91,0,0,0,.05.49c.08.7-.43.81-.89,2-.19.45.88.34.89.45a2.09,2.09,0,0,1,0,.62c-.06.21.16.34.09.42s0,.24-.07.32.15.31.22.51-.26.53-.14.88c.42,1.27,2.89.3,3.6,1.71a3.25,3.25,0,0,1,0,1c0,.36-.5.64-1.09.87-.81.29-2,.49-2.21,1.77-.5,2.84-1.46,5.27-1.93,5.11s-2.14-.67-2-1.32a12.15,12.15,0,0,0-.93-4.5c-.8-2.2-2.73-1.39-2.8-.74-.13,1.31-2.32-.37-3.58.37-2,1.15-1.83,3.77-1,5.68s4.87,2.23,5.68,1.22c.25-.31,1.24,1.13,2.11,2.1a25.86,25.86,0,0,0,1.62,2.16c.35.33,2-.24,1.66-.07s-1.46.75-2,1a18.8,18.8,0,0,0-2.77,1.87,2.84,2.84,0,0,0-1.15,3.31c.23,1.33,4.47,2.57,4.92,2.57a64.6,64.6,0,0,1,6.55,4c.45.37.23.81-.22,1.71s.73,1.39,1.62,1.54,2.15-1.62,2.22-2.14-.16-.74.29-1.11a3.94,3.94,0,0,0,1-2.57c0-1-2.21-.74-2.58-.74s-.73-.44-1.25-.81,2.52-.08,3.47.07a3.53,3.53,0,0,0,3.31-1.91c.81-1.47,2.44-5.91,1.7-12.91Z"/><path class="cls-3" d="M95,131c-.06-.56-5.14-11.25-5.77-11.88s-1.13-2.41-1.83-3.24a55.12,55.12,0,0,1-4.35-6.9c-.81-1.83-.81-1.4-1.42-.65a75.42,75.42,0,0,0-4.18,6.78c-1.23,2.34-3.09,6.28-4.44,9.36a11.21,11.21,0,0,0-.74,2.09c-.12.74-.36,2.83-.36,2.83l-.62.25.62.25a13.74,13.74,0,0,0,.12,2c.12.5-.5,1-1,1.11a8,8,0,0,1-3.33-.49A17.37,17.37,0,0,1,65.89,131s0-1.1.49-1.47A4,4,0,0,1,68,129v-.49a20.51,20.51,0,0,1,.24-3.21c.25-1.11,1.81-5.48,1.81-5.48.11-.42,1.79-6.82,2.08-7.7a12.46,12.46,0,0,1,1.51-3.59c.42-.42.53-.94,1-2.49s3-5,2.8-5.74a13.32,13.32,0,0,1,0-3c0-.73.64-1.47.18-2.77-1-2.79-1.49-8-.86-10.4S82.15,82,82.59,82c-.53,0-1-.78-1-.78-.46-.62-.09-2.89-.09-3.44A5.56,5.56,0,0,1,82,76.3a1.15,1.15,0,0,1,.67-1,11.19,11.19,0,0,0-2-.61c-.66-.32,1-.15,1.75-.23a2.17,2.17,0,0,0,1.31-.64,3.22,3.22,0,0,1,3.46-1c2.35.69,2.16,3.33,2,4.42,0,0-.09.07-.1.11s.07.07.06.11,0,.22-.06.25c-.14.75-1,3.32-2.16,4-.59.37,0,.61,1.78.83,1.43.17,1.43.43,1.71.62a1.92,1.92,0,0,0,.32.14l13.67-11.08a1.35,1.35,0,0,1,1.37.42,1.67,1.67,0,0,1,.4,1.44L91.87,84.36c1.3.92,2.5,3,3.79,4.24,2.46,2.41,2.17,4.63,2,5.33s-.66.68-1.73.68a10.77,10.77,0,0,1-3.63-1.24c-.64-.35-1.38,1.89-1.73,2.51s-.41,3.35-.2,5.07,0,4.62.66,6.77c.28.83,2,6.74,2,7.15a32.91,32.91,0,0,0,1.24,3.94c.52,1.56,2.77,7.58,2.91,8.13.08.32.62,1.57,1.13,2.68l-.1.74.37.09a3,3,0,0,1,.47,1.67,4.63,4.63,0,0,1-.38,1.38,4.23,4.23,0,0,1-1.84.55c-.65-.09-.93.06-1.2-.21a12.58,12.58,0,0,1-.93-2.19L95,131Z"/><path class="cls-3" d="M48.17,147A185.71,185.71,0,0,0,11.6,157.88l5.48-15.73L1.45,136.49a205.8,205.8,0,0,1,40.19-12.34L48.17,147Z"/><path class="cls-8" d="M48.17,147A185.71,185.71,0,0,0,11.6,157.88l5.48-15.73L1.45,136.49a205.8,205.8,0,0,1,40.19-12.34L48.17,147Z"/><path class="cls-3" d="M151.54,147.58a182,182,0,0,1,33.77,10.3l2,.88L183.56,144l15.54-5.84a196.41,196.41,0,0,0-41.45-13.48l-6.11,22.93Z"/><path class="cls-8" d="M151.54,147.58a182,182,0,0,1,33.77,10.3l2,.88L183.56,144l15.54-5.84a196.41,196.41,0,0,0-41.45-13.48l-6.11,22.93Z"/><path class="cls-3" d="M36.11,120.49a310.41,310.41,0,0,1,62.35-6.08,308.53,308.53,0,0,1,64.7,6.59l-6.1,22.91a288.6,288.6,0,0,0-58.6-5.83,291.35,291.35,0,0,0-55.81,5.26l-6.54-22.85Z"/><path class="cls-8" d="M36.11,120.49a310.41,310.41,0,0,1,62.35-6.08,308.53,308.53,0,0,1,64.7,6.59l-6.1,22.91a288.6,288.6,0,0,0-58.6-5.83,291.35,291.35,0,0,0-55.81,5.26l-6.54-22.85Z"/><path class="cls-9" d="M47.62,145.9a185.23,185.23,0,0,0-36.57,10.88l5.48-15.73L.9,135.39a205.22,205.22,0,0,1,40.18-12.34l6.54,22.85Z"/><path class="cls-10" d="M47.62,145.9a185.23,185.23,0,0,0-36.57,10.88l5.48-15.73L.9,135.39a205.22,205.22,0,0,1,40.18-12.34l6.54,22.85Z"/><path class="cls-9" d="M151,146.47a182.89,182.89,0,0,1,33.76,10.31c.68.29,1.35.58,2,.88L183,142.87,198.55,137a195.75,195.75,0,0,0-41.46-13.48L151,146.47Z"/><path class="cls-10" d="M151,146.47a182.89,182.89,0,0,1,33.76,10.31c.68.29,1.35.58,2,.88L183,142.87,198.55,137a195.75,195.75,0,0,0-41.46-13.48L151,146.47Z"/><path class="cls-9" d="M35.56,119.39a310.38,310.38,0,0,1,62.34-6.08,308.75,308.75,0,0,1,64.72,6.58l-6.11,22.92A288.7,288.7,0,0,0,97.9,137a292.06,292.06,0,0,0-55.8,5.25l-6.54-22.84Z"/><path class="cls-10" d="M35.56,119.39a310.38,310.38,0,0,1,62.34-6.08,308.75,308.75,0,0,1,64.72,6.58l-6.11,22.92A288.7,288.7,0,0,0,97.9,137a292.06,292.06,0,0,0-55.8,5.25l-6.54-22.84Z"/><path class="cls-3" d="M65.45,129.64,63.34,125l-1.11,5,3.22-.35Zm.33.75-3.72.4-.32,1.43a3.85,3.85,0,0,0-.09,1.16,1.08,1.08,0,0,0,.44.85,2.39,2.39,0,0,0,1.07.14l0,.37-3.53.38,0-.38a1.43,1.43,0,0,0,.86-.73,9.49,9.49,0,0,0,.69-2.25l2.57-11.7h.16L69,131.25a7.7,7.7,0,0,0,1.13,2,1.06,1.06,0,0,0,.79.3l0,.37-5.13.55,0-.37.2,0a1.27,1.27,0,0,0,.84-.33.68.68,0,0,0,.14-.5,2.36,2.36,0,0,0-.1-.38c0-.07-.12-.32-.31-.76l-.77-1.71Z"/><path class="cls-3" d="M81.25,128.21l-.06,5-9.46.66,0-.38.36,0a1.21,1.21,0,0,0,.73-.28.9.9,0,0,0,.29-.52,5.94,5.94,0,0,0,0-1.34L72.43,122a6.68,6.68,0,0,0-.19-1.36.89.89,0,0,0-.37-.45,1.12,1.12,0,0,0-.73-.16h-.36l0-.37,5.67-.39,0,.38-.46,0a1.12,1.12,0,0,0-.73.27,1,1,0,0,0-.29.52,6.31,6.31,0,0,0,0,1.34l.62,9a6.49,6.49,0,0,0,.19,1.38.74.74,0,0,0,.4.43,3.18,3.18,0,0,0,1,0l.89-.06a2.36,2.36,0,0,0,1.38-.49,3.1,3.1,0,0,0,.89-1.32,12.87,12.87,0,0,0,.6-2.58l.34,0Z"/><path class="cls-3" d="M92.51,127.81l-.23,5-9.48.3v-.38h.35a1.19,1.19,0,0,0,.74-.25.88.88,0,0,0,.3-.52,5.92,5.92,0,0,0,0-1.33l-.31-9.37a7.16,7.16,0,0,0-.13-1.37,1,1,0,0,0-.37-.47,1.11,1.11,0,0,0-.71-.17h-.37v-.37l5.69-.19v.38h-.46a1.3,1.3,0,0,0-.74.24,1,1,0,0,0-.3.52,5.65,5.65,0,0,0,0,1.34l.29,9.07a6.47,6.47,0,0,0,.14,1.39.79.79,0,0,0,.38.44,2.86,2.86,0,0,0,1,0l.9,0a2.3,2.3,0,0,0,1.39-.44,3,3,0,0,0,.93-1.28,12.63,12.63,0,0,0,.71-2.56Z"/><path class="cls-3" d="M104.91,118.29l0,4.73h-.3a5.47,5.47,0,0,0-1.1-2.87,2.53,2.53,0,0,0-1.92-1.11,1.56,1.56,0,0,0-1.29.56,2.09,2.09,0,0,0-.48,1.31,1.91,1.91,0,0,0,.17.84,3.14,3.14,0,0,0,.7,1,19.21,19.21,0,0,0,1.71,1.24,8.06,8.06,0,0,1,2.5,2.34,4.83,4.83,0,0,1,.61,2.5,4.66,4.66,0,0,1-1.08,3.05,3.28,3.28,0,0,1-2.68,1.25,3.06,3.06,0,0,1-1-.15,5.68,5.68,0,0,1-1.13-.53,1.3,1.3,0,0,0-.63-.21.64.64,0,0,0-.43.21,1.36,1.36,0,0,0-.38.64H98l.06-5.38h.26a7.05,7.05,0,0,0,1.31,3.48,2.87,2.87,0,0,0,2.14,1.21,1.76,1.76,0,0,0,1.43-.62,2.27,2.27,0,0,0,.54-1.48,2.24,2.24,0,0,0-.2-1,2.89,2.89,0,0,0-.6-.9,9.2,9.2,0,0,0-1.44-1.13,12.21,12.21,0,0,1-2.07-1.64,4.7,4.7,0,0,1-1-1.51,4.89,4.89,0,0,1-.32-1.83,4.55,4.55,0,0,1,1-2.88,2.87,2.87,0,0,1,2.37-1.17,3.11,3.11,0,0,1,1,.18,4.74,4.74,0,0,1,.89.48,1.78,1.78,0,0,0,.74.35.39.39,0,0,0,.33-.17,2.43,2.43,0,0,0,.23-.8Z"/><path class="cls-3" d="M117.3,119.07l-.17,3.85h-.27a7.16,7.16,0,0,0-.48-1.94,2.38,2.38,0,0,0-.8-1,2.07,2.07,0,0,0-1-.24l-.81,0-.48,11a7.92,7.92,0,0,0,0,1.37,1.09,1.09,0,0,0,.34.5,1,1,0,0,0,.71.23l.34,0,0,.38-5.58-.25,0-.38.36,0a1.13,1.13,0,0,0,.75-.19,1,1,0,0,0,.34-.49,5.37,5.37,0,0,0,.15-1.33l.48-11-.79,0a1.93,1.93,0,0,0-1.61.54,4.59,4.59,0,0,0-1,2.38h-.27l.17-3.84,9.61.42Z"/><path class="cls-3" d="M123.22,129,122,124l-2,4.75,3.23.25Zm.19.79-3.74-.29-.57,1.34a4.53,4.53,0,0,0-.31,1.13,1.06,1.06,0,0,0,.29.92,2.43,2.43,0,0,0,1,.33l0,.38-3.54-.28,0-.37a1.46,1.46,0,0,0,1-.57,8.82,8.82,0,0,0,1.08-2.07l4.7-11h.15l2.92,11.93a7.88,7.88,0,0,0,.75,2.17,1.08,1.08,0,0,0,.73.44l0,.37-5.15-.4,0-.37h.21a1.29,1.29,0,0,0,.88-.16.6.6,0,0,0,.22-.47,1.7,1.7,0,0,0,0-.39,7.7,7.7,0,0,0-.17-.81l-.44-1.82Z"/><path class="cls-3" d="M134.19,121.35l-.73,6.16.44,0a4.14,4.14,0,0,0,1.67-.06,1.83,1.83,0,0,0,1-.86,4.53,4.53,0,0,0,.52-1.76,4,4,0,0,0-.28-2.45,2.17,2.17,0,0,0-1.74-1l-.84-.1Zm-.82,6.9-.47,4a5.45,5.45,0,0,0-.06,1.44.84.84,0,0,0,.32.52,2,2,0,0,0,1,.3l0,.37-5.49-.65,0-.37a1.85,1.85,0,0,0,1-.07.92.92,0,0,0,.43-.42,5.63,5.63,0,0,0,.27-1.43l1.1-9.21a5.6,5.6,0,0,0,.06-1.46.9.9,0,0,0-.32-.52,2.1,2.1,0,0,0-1-.29l0-.37,4.95.59a8,8,0,0,1,2.79.69,3,3,0,0,1,1.29,1.48,4.28,4.28,0,0,1,.31,2.31,4,4,0,0,1-1.17,2.48,3.3,3.3,0,0,1-1.63.8l2,5.08a7.7,7.7,0,0,0,.56,1.24,1.16,1.16,0,0,0,.7.43l-.05.4-3.32-.4-2.66-6.84-.69-.1Z"/><polygon class="cls-6" points="26.12 136.94 21.68 138.47 26.13 139.8 26.15 144.35 28.91 140.63 33.38 141.92 30.64 138.28 33.36 134.53 28.91 136 26.14 132.4 26.12 136.94 26.12 136.94"/><polygon class="cls-6" points="173.53 137.56 177.98 139.08 173.53 140.42 173.51 144.97 170.75 141.24 166.28 142.53 169.02 138.89 166.29 135.14 170.75 136.62 173.51 133.01 173.53 137.56 173.53 137.56"/><path class="cls-3" d="M56.13,160.52v-.36c.29-.06.36-.14.36-.26s-4.36-12.15-4.89-13.68c-.22-.65-.32-.8-.56-.83V145h5v.35c-.39,0-.49.15-.49.35s.37.95,3.41,8.95c2.9-7.77,3.29-8.62,3.29-9s-.07-.3-.36-.33V145h4.19v.35a.44.44,0,0,0-.37.38c-.24.95-4.9,13.69-4.9,14.1,0,.15.13.27.35.27v.38Z"/><path class="cls-3" d="M68.2,157.84v-.3c.5,0,.56-.22.56-.43V145.77c0-.22-.06-.39-.56-.44V145h4.15v.29c-.51,0-.57.22-.57.44v11.34c0,.21.06.38.57.43v.3Z"/><path class="cls-3" d="M80.2,154.87h6.93c.22,0,.3-.12.36-.68h.24v4.28h-.24c-.06-.51-.14-.63-.36-.63H76.61v-.3c.51,0,.57-.22.57-.43V145.77c0-.22-.06-.39-.57-.44V145h4.16v.29c-.51,0-.57.22-.57.44v9.1Z"/><path class="cls-3" d="M94.44,154.87h6.93c.22,0,.3-.12.36-.68H102v4.28h-.24c-.06-.51-.14-.63-.36-.63H90.86v-.3c.5,0,.56-.22.56-.43V145.77c0-.22-.06-.39-.56-.44V145H95v.29c-.51,0-.57.22-.57.44v9.1Z"/><path class="cls-3" d="M112.91,155.06c.08.32.69,2.09.69,2.19s-.1.27-.39.29v.3h4v-.3c-.24,0-.37-.14-.57-.73-1.24-3.69-3.72-11-3.72-11.16s.14-.29.36-.32V145H108v.29c.19,0,.41.07.41.24S105,156.43,104.82,157c-.13.38-.25.49-.53.55v.3h3.56v-.3c-.27,0-.36-.09-.36-.24a23.09,23.09,0,0,1,.65-2.24Zm-2.48-7.74,2,5.8h-3.75l1.79-5.8Z"/><path class="cls-3" d="M129.33,153.33h-2.61c-.21,0-.28.2-.3.49h-.24v-3.41h.24c0,.32.09.44.3.44h5.95v.3c-.24,0-.32.14-.32.41v4c0,.22,0,.41.24.41h.09v.29a11.35,11.35,0,0,1-6.47,1.83,6.55,6.55,0,1,1,0-13.09,8.32,8.32,0,0,1,3.27.58c.67.22,1.31.63,1.48.63a.37.37,0,0,0,.28-.19l.24.09-1.31,3.22-.25-.17a.59.59,0,0,0,.05-.27c0-.46-2-1.17-3.67-1.17a3.55,3.55,0,0,0-3.66,3.87,3.7,3.7,0,0,0,3.87,3.77,8.29,8.29,0,0,0,2.82-.46v-1.61Z"/><path class="cls-3" d="M145,155.69h-.29c-.07-.38-.25-.68-.73-.68h-4.53v2.74h7.82c.26,0,.36-.15.43-.88H148V162h-.29c-.07-.51-.17-.65-.43-.65H135.09V161c.61-.06.68-.27.68-.54v-13.7c0-.27-.07-.48-.68-.53v-.36h12.16c.26,0,.36-.14.43-.82H148v5.12h-.29c-.07-.68-.17-.82-.43-.82h-7.82v2.44H144c.48,0,.66-.3.73-.68H145v4.59Z"/></svg>