<svg id="Layer_1" data-name="Layer 1" xmlns="http://www.w3.org/2000/svg" viewBox="0 0 200 200"><defs><style>.cls-1{fill:#ba2026;}.cls-2{fill:#fff;}</style></defs><title>icon-AC</title><circle class="cls-1" cx="100" cy="100" r="100"/><path class="cls-2" d="M100,171.71A2.73,2.73,0,0,1,97.27,169V31a2.73,2.73,0,0,1,5.46,0V169A2.73,2.73,0,0,1,100,171.71Z"/><path class="cls-2" d="M100,61.1a2.74,2.74,0,0,1-1.93-.8L84.55,46.79a2.74,2.74,0,0,1,3.87-3.87L100,54.51l11.58-11.59a2.74,2.74,0,0,1,3.87,3.87L101.93,60.3A2.72,2.72,0,0,1,100,61.1Z"/><path class="cls-2" d="M100,83a2.74,2.74,0,0,1-1.93-.8L84.55,68.63a2.73,2.73,0,1,1,3.87-3.86L100,76.35l11.58-11.58a2.73,2.73,0,1,1,3.87,3.86L101.93,82.15A2.72,2.72,0,0,1,100,83Z"/><path class="cls-2" d="M113.52,157.91a2.77,2.77,0,0,1-1.94-.8L100,145.52,88.42,157.11a2.73,2.73,0,0,1-3.87-3.86l13.52-13.52a2.74,2.74,0,0,1,1.93-.8h0a2.72,2.72,0,0,1,1.93.8l13.52,13.52a2.73,2.73,0,0,1-1.93,4.66Z"/><path class="cls-2" d="M113.52,136.06a2.72,2.72,0,0,1-1.94-.8L100,123.68,88.42,135.26a2.73,2.73,0,0,1-3.87-3.86l13.52-13.51a2.7,2.7,0,0,1,1.93-.8h0a2.68,2.68,0,0,1,1.93.8l13.52,13.51a2.73,2.73,0,0,1-1.93,4.66Z"/><path class="cls-2" d="M169,102.73H31a2.73,2.73,0,1,1,0-5.46H169a2.73,2.73,0,1,1,0,5.46Z"/><path class="cls-2" d="M155.15,116.25a2.73,2.73,0,0,1-1.93-.8L139.7,101.93a2.73,2.73,0,0,1,0-3.86l13.52-13.52a2.73,2.73,0,1,1,3.86,3.86L145.49,100l11.59,11.58a2.74,2.74,0,0,1-1.93,4.67Z"/><path class="cls-2" d="M133.3,116.25a2.73,2.73,0,0,1-1.93-.8l-13.52-13.52a2.73,2.73,0,0,1,0-3.86l13.52-13.52a2.73,2.73,0,1,1,3.86,3.86L123.65,100l11.58,11.58a2.74,2.74,0,0,1-1.93,4.67Z"/><path class="cls-2" d="M44.82,116.25a2.74,2.74,0,0,1-1.93-4.67L54.48,100,42.89,88.41a2.73,2.73,0,1,1,3.86-3.86L60.27,98.07a2.73,2.73,0,0,1,0,3.86L46.75,115.45A2.73,2.73,0,0,1,44.82,116.25Z"/><path class="cls-2" d="M66.67,116.25a2.74,2.74,0,0,1-1.93-4.67L76.32,100,64.74,88.41a2.73,2.73,0,1,1,3.86-3.86L82.11,98.07a2.73,2.73,0,0,1,0,3.86L68.6,115.45A2.74,2.74,0,0,1,66.67,116.25Z"/><path class="cls-2" d="M51.22,151.51a2.73,2.73,0,0,1-1.93-4.66l97.56-97.56a2.73,2.73,0,0,1,3.86,3.86L53.15,150.71A2.73,2.73,0,0,1,51.22,151.51Z"/><path class="cls-2" d="M148.55,73.29H129.44a2.73,2.73,0,0,1-2.73-2.73V51.45a2.73,2.73,0,1,1,5.46,0V67.83h16.38a2.73,2.73,0,0,1,0,5.46Z"/><path class="cls-2" d="M133.1,88.74H114A2.73,2.73,0,0,1,111.26,86V66.9a2.73,2.73,0,1,1,5.46,0V83.28H133.1a2.73,2.73,0,1,1,0,5.46Z"/><path class="cls-2" d="M70.54,151.3a2.73,2.73,0,0,1-2.73-2.73V132.19H51.43a2.73,2.73,0,0,1,0-5.46H70.54a2.73,2.73,0,0,1,2.73,2.73v19.11A2.73,2.73,0,0,1,70.54,151.3Z"/><path class="cls-2" d="M86,135.86a2.73,2.73,0,0,1-2.73-2.73V116.74H66.87a2.73,2.73,0,0,1,0-5.46H86A2.73,2.73,0,0,1,88.72,114v19.12A2.73,2.73,0,0,1,86,135.86Z"/><path class="cls-2" d="M148.78,151.51a2.73,2.73,0,0,1-1.93-.8L49.29,53.15a2.73,2.73,0,0,1,3.86-3.86l97.56,97.56a2.73,2.73,0,0,1-1.93,4.66Z"/><path class="cls-2" d="M129.44,151.28a2.73,2.73,0,0,1-2.73-2.73V129.43a2.73,2.73,0,0,1,2.73-2.73h19.11a2.74,2.74,0,0,1,0,5.47H132.17v16.38A2.73,2.73,0,0,1,129.44,151.28Z"/><path class="cls-2" d="M114,135.83a2.73,2.73,0,0,1-2.73-2.73V114a2.73,2.73,0,0,1,2.73-2.73H133.1a2.73,2.73,0,1,1,0,5.46H116.72V133.1A2.73,2.73,0,0,1,114,135.83Z"/><path class="cls-2" d="M70.54,73.27H51.43a2.73,2.73,0,0,1,0-5.46H67.81V51.43a2.73,2.73,0,1,1,5.46,0V70.54A2.73,2.73,0,0,1,70.54,73.27Z"/><path class="cls-2" d="M86,88.72H66.87a2.73,2.73,0,0,1,0-5.46H83.26V66.87a2.73,2.73,0,0,1,5.46,0V86A2.73,2.73,0,0,1,86,88.72Z"/></svg>