<svg id="Layer_1" data-name="Layer 1" xmlns="http://www.w3.org/2000/svg" viewBox="0 0 200 200"><defs><style>.cls-1{fill:#ba2026;}.cls-2{fill:#fff;}</style></defs><title>icon-dining</title><circle class="cls-1" cx="100" cy="100" r="100"/><path class="cls-2" d="M44.66,121.45l-4.76-1L46.44,90.1l-2.56-7.69a2.51,2.51,0,0,1,0-1.41l4.89-17.81-2.91-5.1a2.44,2.44,0,0,1-.23-1.85l.64-2.34a2.45,2.45,0,0,1,3-1.71L91.46,63.78l-1.28,4.69L51.25,57.8l2.21,3.86a2.49,2.49,0,0,1,.23,1.85l-5,18.06,2.54,7.63a2.42,2.42,0,0,1,.06,1.28Z"/><path class="cls-2" d="M70.22,143.65a2.39,2.39,0,0,1-.64-.08L39.07,135.2a2.43,2.43,0,0,1-1.73-2.86l1.54-7.15,4.75,1-1.05,4.9,26.07,7.15,13.2-39.42a2.4,2.4,0,0,1,.71-1.06l6.07-5.28,5-18.06A2.42,2.42,0,0,1,94.73,73l3.86-2.2-3.72-1,1.29-4.7,7,1.94a2.42,2.42,0,0,1,1.7,3l-.64,2.35a2.44,2.44,0,0,1-1.14,1.47L98,76.71l-4.88,17.8a2.48,2.48,0,0,1-.75,1.2L86.25,101,72.53,142A2.42,2.42,0,0,1,70.22,143.65Z"/><rect class="cls-2" x="67.98" y="57.6" width="4.87" height="46.24" transform="translate(-26.05 127.28) rotate(-74.67)"/><path class="cls-2" d="M128.68,147.89a2.42,2.42,0,0,1-2.37-1.92l-9-42.25-5.49-6a2.48,2.48,0,0,1-.61-1.27L108.3,78.24l-2-1.43,2.86-3.93,2.78,2a2.4,2.4,0,0,1,1,1.59L115.85,95l5.44,5.91a2.41,2.41,0,0,1,.59,1.14l8.7,40.65,26.71-4.19-2.93-29.23,4.84-.49,3.16,31.53a2.44,2.44,0,0,1-2,2.65l-31.26,4.89A2.34,2.34,0,0,1,128.68,147.89Z"/><path class="cls-2" d="M153.87,104.43l-.73-7.28a2.49,2.49,0,0,1,.21-1.26l3.37-7.3-2.9-18.5a2.43,2.43,0,0,1,.44-1.81l2.62-3.6-47.09,7.38L109,67.25l50.49-7.91a2.44,2.44,0,0,1,2.78,2l.38,2.4a2.43,2.43,0,0,1-.44,1.81l-3.46,4.75,2.86,18.24a2.46,2.46,0,0,1-.2,1.39l-3.4,7.37.66,6.61Z"/><rect class="cls-2" x="112.16" y="82.88" width="46.23" height="4.87" transform="translate(-11.54 21.89) rotate(-8.87)"/><rect class="cls-2" x="145.92" y="95.61" width="4.87" height="4.87" transform="translate(-13.39 24.15) rotate(-8.91)"/><rect class="cls-2" x="55.91" y="90.11" width="4.87" height="4.86" transform="translate(-46.34 124.3) rotate(-74.65)"/><rect class="cls-2" x="127.81" y="105.83" width="4.87" height="4.87" transform="translate(-15.19 21.47) rotate(-8.91)"/><rect class="cls-2" x="129.32" y="115.45" width="4.87" height="4.87" transform="translate(-16.65 21.81) rotate(-8.9)"/><rect class="cls-2" x="70.41" y="101.66" width="4.87" height="4.86" transform="translate(-46.82 146.77) rotate(-74.65)"/><rect class="cls-2" x="67.83" y="111.04" width="4.87" height="4.87" transform="matrix(0.26, -0.96, 0.96, 0.26, -57.76, 151.22)"/><rect class="cls-2" x="143.22" y="125.59" width="4.87" height="4.87" transform="translate(-18.05 24.08) rotate(-8.9)"/><rect class="cls-2" x="57.57" y="120.85" width="4.87" height="4.86" transform="translate(-74.76 148.5) rotate(-74.65)"/></svg>