<svg id="Layer_1" data-name="Layer 1" xmlns="http://www.w3.org/2000/svg" viewBox="0 0 200 200"><defs><style>.cls-1{fill:#6d6e6e;}</style></defs><title>icon-tournament</title><rect class="cls-1" x="40.3" y="96.13" width="49.63" height="7.73"/><path class="cls-1" d="M124.82,136.77H89.93a3.86,3.86,0,0,1-3.87-3.86V67.09a3.86,3.86,0,0,1,3.87-3.86h34.89V71h-31V129h31Z"/><path class="cls-1" d="M159.7,87.4H124.82A3.86,3.86,0,0,1,121,83.54V50.65a3.87,3.87,0,0,1,3.87-3.87H159.7v7.74h-31V79.67h31Z"/><path class="cls-1" d="M159.7,153.22H124.82a3.87,3.87,0,0,1-3.87-3.87V116.46a3.86,3.86,0,0,1,3.87-3.86H159.7v7.73h-31v25.15h31Z"/></svg>