<svg id="Layer_1" data-name="Layer 1" xmlns="http://www.w3.org/2000/svg" viewBox="0 0 200 200"><defs><style>.cls-1{fill:#ba2026;}.cls-2{fill:#fff;}</style></defs><title>icon-fields</title><circle class="cls-1" cx="100" cy="100" r="100"/><path class="cls-2" d="M100,172.13a24,24,0,1,1,24-24A24.07,24.07,0,0,1,100,172.13Zm0-42.08a18,18,0,1,0,18,18A18.05,18.05,0,0,0,100,130.05Z"/><path class="cls-2" d="M100,154.1a3,3,0,0,1-1.8-.6l-12-9A3,3,0,0,1,85,142.07v-12h6v10.52l9,6.76,9-6.76V130.05h6v12a3,3,0,0,1-1.21,2.41l-12,9A3,3,0,0,1,100,154.1Z"/><rect class="cls-2" x="118.94" y="137.57" width="11.79" height="6.01" transform="translate(-63.1 145.49) rotate(-49.89)"/><path class="cls-2" d="M76.66,147,28.58,89.91A3,3,0,0,1,27.87,88c0-31.46,34.38-60.11,72.13-60.11S172.13,56.52,172.13,88a3,3,0,0,1-.71,1.93L136,132l-4.6-3.87L166.1,86.9c-.78-25.25-28.79-53-66.1-53s-65.32,27.77-66.1,53l47.36,56.24Z"/><rect class="cls-2" x="99.16" y="107.51" width="46.75" height="6.01" transform="translate(-42.26 119.02) rotate(-45)"/><rect class="cls-2" x="118.03" y="44.44" width="6.01" height="51" transform="translate(-14.01 106.07) rotate(-45)"/><rect class="cls-2" x="71.6" y="59.43" width="29.75" height="6.01" transform="translate(-18.82 79.43) rotate(-45)"/><rect class="cls-2" x="59.06" y="80.46" width="12.75" height="6.01" transform="translate(-39.86 70.72) rotate(-45)"/><rect class="cls-2" x="74.46" y="87.14" width="6.01" height="46.76" transform="translate(-55.46 87.14) rotate(-45)"/><path class="cls-2" d="M100,60.93a3,3,0,0,1-2.12-.88l-9-9a3,3,0,0,1,0-4.25l9-9a3,3,0,0,1,4.24,0l9,9a3,3,0,0,1,0,4.25l-9,9A3,3,0,0,1,100,60.93Zm-4.77-12L100,53.67l4.77-4.76L100,44.14Z"/><path class="cls-2" d="M142.07,103a3,3,0,0,1-2.12-.88l-9-9a3,3,0,0,1,0-4.25l9-9a3,3,0,0,1,4.25,0l9,9a3,3,0,0,1,0,4.25l-9,9A3,3,0,0,1,142.07,103Zm-4.76-12,4.76,4.77L146.84,91l-4.77-4.76Z"/><path class="cls-2" d="M57.93,103a3,3,0,0,1-2.13-.88l-9-9a3,3,0,0,1,0-4.25l9-9a3,3,0,0,1,4.25,0l9,9a3,3,0,0,1,0,4.25l-9,9A3,3,0,0,1,57.93,103ZM53.16,91l4.77,4.77L62.69,91l-4.76-4.76Z"/></svg>