<svg id="Layer_1" data-name="Layer 1" xmlns="http://www.w3.org/2000/svg" viewBox="0 0 200 200"><defs><style>.cls-1{fill:#ba2026;}.cls-2{fill:#fff;}</style></defs><title>icon-location</title><circle class="cls-1" cx="100" cy="100" r="100"/><path class="cls-2" d="M100,172.56a16,16,0,0,1-5.29-.91,15.36,15.36,0,0,1-8.35-6.82l-16-25.23c-7.95-12.66-13.26-21.18-15.8-25.34a91.34,91.34,0,0,1-7.64-16.71,51.57,51.57,0,0,1-2-15A53.62,53.62,0,0,1,52.35,55,56.53,56.53,0,0,1,72.41,34.91a54.69,54.69,0,0,1,55.18,0A56.53,56.53,0,0,1,147.65,55a53.62,53.62,0,0,1,7.47,27.59,51.57,51.57,0,0,1-2,15,85.23,85.23,0,0,1-7.6,16.37c-2.56,4.38-7.88,13-15.84,25.67l-16.05,25.3a15.29,15.29,0,0,1-8.31,6.76A16,16,0,0,1,100,172.56Zm0-139.32a47.77,47.77,0,0,0-24.63,6.67,50.52,50.52,0,0,0-18,18,47.77,47.77,0,0,0-6.67,24.63,45.89,45.89,0,0,0,1.78,13.3,86.25,86.25,0,0,0,7.1,15.48c2.47,4,7.77,12.54,15.7,25.16l16,25.28a9.65,9.65,0,0,0,5.29,4.39,10.11,10.11,0,0,0,6.82,0,9.57,9.57,0,0,0,5.25-4.33l16.09-25.35c7.91-12.6,13.2-21.17,15.71-25.48a79.19,79.19,0,0,0,7.08-15.15,45.89,45.89,0,0,0,1.78-13.3,47.77,47.77,0,0,0-6.67-24.63,50.52,50.52,0,0,0-18-18A47.77,47.77,0,0,0,100,33.24Z"/><path class="cls-2" d="M100,107a26.11,26.11,0,1,1,26.11-26.11A26.14,26.14,0,0,1,100,107Zm0-46.42a20.31,20.31,0,1,0,20.31,20.31A20.33,20.33,0,0,0,100,60.53Z"/><path class="cls-2" d="M116.58,100.31c-7.21,0-12.85-8.55-12.85-19.47s5.64-19.48,12.85-19.48v5.8c-3.34,0-7,5.62-7,13.68s3.71,13.67,7,13.67Z"/><path class="cls-2" d="M83.42,100.31v-5.8c3.34,0,7-5.61,7-13.67s-3.71-13.68-7-13.68v-5.8c7.21,0,12.85,8.56,12.85,19.48S90.63,100.31,83.42,100.31Z"/></svg>