<svg id="Layer_1" data-name="Layer 1" xmlns="http://www.w3.org/2000/svg" viewBox="0 0 200 200"><defs><style>.cls-1{fill:#ba2026;}.cls-2{fill:#fff;}</style></defs><title>icon-uniforms</title><circle class="cls-1" cx="100" cy="100" r="100"/><path class="cls-2" d="M138.75,162H61.26a2.58,2.58,0,0,1-2.59-2.58V92.25h5.17v64.58h72.32V92.25h5.17v67.16A2.57,2.57,0,0,1,138.75,162Z"/><path class="cls-2" d="M100,146.49H94.84V66.05a7.72,7.72,0,0,1,6.74-7.69c8.7-1.06,19.09-5,19.09-17.77h5.16c0,12.72-8.61,21.07-23.63,22.9a2.56,2.56,0,0,0-2.2,2.56Z"/><rect class="cls-2" x="94.84" y="151.66" width="5.17" height="7.75"/><path class="cls-2" d="M110.33,79.34h-5.16V73.8a7.72,7.72,0,0,1,6.74-7.69c6-.73,19.09-8.17,19.09-25.52h5.16c0,19.15-13.81,29.46-23.63,30.65a2.55,2.55,0,0,0-2.2,2.56Z"/><rect class="cls-2" x="105.17" y="84.5" width="5.17" height="74.91"/><path class="cls-2" d="M100,63.84H97.42c-14.19,0-23.25-13.77-23.25-23.25h5.17c0,6.14,6.38,18.08,18.08,18.08H100Z"/><path class="cls-2" d="M97.42,74.17c-17.89,0-33.58-15.69-33.58-33.58H69C69,55.46,82.55,69,97.42,69Z"/><path class="cls-2" d="M149.42,113.75a21.38,21.38,0,0,1-12.22-3.93l3.09-4.14c.36.26,9,6.46,17.57,0l3.1,4.14A18.88,18.88,0,0,1,149.42,113.75Z"/><path class="cls-2" d="M50.93,123.25c-6.21,0-12.92-3-12.92-7.75l3.5-51.84,5.16.35-3.5,51.66c.23.59,3.39,2.41,7.76,2.41s7.53-1.82,7.75-2.62l5.16,0C63.84,120.29,57.14,123.25,50.93,123.25Z"/><path class="cls-2" d="M155.61,97.59l-2.88-42.47a13,13,0,0,0-12.88-11.95H60.15a13,13,0,0,0-12.88,12L47,58.85l-5.16-.35.26-3.73A18.16,18.16,0,0,1,60.15,38h79.7a18.14,18.14,0,0,1,18,16.74l2.88,42.49Z"/><path class="cls-2" d="M149.08,123.25c-6.21,0-12.92-3-12.92-7.75h5.17v0c.22.8,3.38,2.62,7.75,2.62s7.53-1.82,7.75-2.62l-.87-12.7,5.15-.35.88,12.91C162,120.29,155.29,123.25,149.08,123.25Z"/><path class="cls-2" d="M50.59,113.75A18.93,18.93,0,0,1,39,109.82l3.1-4.14c8.61,6.45,17.21.26,17.58,0l3.09,4.14A21.38,21.38,0,0,1,50.59,113.75Z"/></svg>