<svg id="Layer_1" data-name="Layer 1" xmlns="http://www.w3.org/2000/svg" viewBox="0 0 200 200"><defs><style>.cls-1{fill:#ba2026;}.cls-2{fill:#fff;}</style></defs><title>icon-views</title><circle class="cls-1" cx="100" cy="100" r="100"/><path class="cls-2" d="M81.32,82.88A18.36,18.36,0,1,1,99.68,64.52,18.39,18.39,0,0,1,81.32,82.88Zm0-31.72A13.36,13.36,0,1,0,94.67,64.52,13.38,13.38,0,0,0,81.32,51.16Z"/><path class="cls-2" d="M41.42,131.24,65.72,99c2.17-2.88,6.21-4.57,10.68-4.38,4.24.17,7.88,2,9.74,4.8l20.91,31.82h5.37l-18-27.32,18-29a11.66,11.66,0,0,1,10.4-5.34,11.41,11.41,0,0,1,9.78,5.88l30.09,55.82h5L136.16,72.73a15.73,15.73,0,0,0-27.17-.8L91.76,99.8l-2.27-3.45c-2.63-4-7.47-6.52-12.94-6.74-5.7-.19-11,2-14,6.06L35.74,131.24Z"/><rect class="cls-2" x="25.23" y="136.84" width="149.54" height="5.01"/></svg>