<?xml version="1.0" encoding="utf-8"?>
<!-- Generator: Adobe Illustrator 24.3.0, SVG Export Plug-In . SVG Version: 6.00 Build 0)  -->
<svg version="1.1" id="Layer_1" xmlns="http://www.w3.org/2000/svg" xmlns:xlink="http://www.w3.org/1999/xlink" x="0px" y="0px"
	 viewBox="0 0 200 200" style="enable-background:new 0 0 200 200;" xml:space="preserve">
<style type="text/css">
	.st0{fill:#BA2026;}
	.st1{fill:#FFFFFF;}
</style>
<circle class="st0" cx="100" cy="100" r="100"/>
<g>
	<path class="st1" d="M100,173.6c-40.6,0-73.6-33-73.6-73.6s33-73.6,73.6-73.6c40.6,0,73.6,33,73.6,73.6S140.6,173.6,100,173.6z
		 M100,32.4c-37.3,0-67.6,30.3-67.6,67.6c0,37.3,30.3,67.6,67.6,67.6s67.6-30.3,67.6-67.6C167.6,62.7,137.3,32.4,100,32.4z"/>
	<g>
		<path class="st1" d="M149,152.9c-0.5-0.6-1-1.1-1.5-1.7l8.7-7.5c0.4,0.5,0.8,1,1.3,1.4L149,152.9z M145.4,148.6
			c-0.5-0.6-0.9-1.2-1.4-1.8l9.2-6.9c0.4,0.5,0.8,1,1.2,1.5L145.4,148.6z M142,144.1c-0.4-0.6-0.8-1.2-1.2-1.9l9.7-6.2
			c0.3,0.5,0.7,1.1,1.1,1.6L142,144.1z M139,139.3c-0.4-0.6-0.8-1.3-1.1-2l10.1-5.5c0.3,0.6,0.6,1.1,0.9,1.7L139,139.3z
			 M136.3,134.4c-0.3-0.7-0.7-1.4-1-2l10.5-4.8c0.3,0.6,0.5,1.2,0.8,1.7L136.3,134.4z M134,129.3c-0.3-0.7-0.6-1.4-0.8-2.1l10.8-4.1
			c0.2,0.6,0.5,1.2,0.7,1.8L134,129.3z M132.1,124c-0.2-0.7-0.5-1.4-0.7-2.1l11-3.3c0.2,0.6,0.4,1.2,0.6,1.8L132.1,124z
			 M130.5,118.6c-0.2-0.7-0.4-1.5-0.5-2.2l11.2-2.5c0.1,0.6,0.3,1.3,0.4,1.9L130.5,118.6z M129.3,113.1c-0.1-0.7-0.3-1.5-0.4-2.2
			l11.4-1.7c0.1,0.6,0.2,1.3,0.3,1.9L129.3,113.1z M128.5,107.5c-0.1-0.7-0.1-1.5-0.2-2.2l11.5-0.9c0,0.6,0.1,1.3,0.2,1.9
			L128.5,107.5z M128.1,101.9c0-0.7,0-1.5,0-2.3l11.5-0.1c0,0.6,0,1.3,0,1.9L128.1,101.9z M139.6,96.7l-11.5-0.4
			c0-0.7,0.1-1.5,0.1-2.2l11.5,0.7C139.7,95.4,139.7,96.1,139.6,96.7z M140,91.9l-11.5-1.2c0.1-0.7,0.2-1.5,0.3-2.2l11.4,1.5
			C140.1,90.6,140,91.3,140,91.9z M140.6,87.1l-11.3-2c0.1-0.7,0.3-1.5,0.4-2.2l11.3,2.3C140.9,85.9,140.8,86.5,140.6,87.1z
			 M141.6,82.4l-11.2-2.8c0.2-0.7,0.4-1.4,0.6-2.2l11.1,3.1C142,81.2,141.8,81.8,141.6,82.4z M143,77.8L132,74.2
			c0.2-0.7,0.5-1.4,0.7-2.1l10.8,3.9C143.4,76.6,143.2,77.2,143,77.8z M144.6,73.3L134,68.9c0.3-0.7,0.6-1.4,0.9-2.1l10.5,4.7
			C145.1,72.1,144.9,72.7,144.6,73.3z M146.6,68.9l-10.3-5.1c0.3-0.7,0.7-1.3,1-2l10.2,5.4C147.2,67.7,146.9,68.3,146.6,68.9z
			 M148.9,64.7l-9.9-5.8c0.4-0.6,0.8-1.3,1.2-1.9l9.8,6.1C149.6,63.5,149.2,64.1,148.9,64.7z M151.5,60.6l-9.5-6.5
			c0.4-0.6,0.9-1.2,1.3-1.8l9.3,6.8C152.2,59.5,151.9,60.1,151.5,60.6z M154.3,56.7l-9-7.2c0.5-0.6,0.9-1.2,1.4-1.7l8.8,7.4
			C155.2,55.7,154.7,56.2,154.3,56.7z"/>
		<path class="st1" d="M51.5,152.5l-8.5-7.7c0.4-0.5,0.9-1,1.3-1.4l8.8,7.5C52.5,151.3,52,151.9,51.5,152.5z M55.1,148.2l-9.1-7.1
			c0.4-0.5,0.8-1,1.2-1.5l9.3,6.8C56.1,147,55.6,147.6,55.1,148.2z M58.4,143.6l-9.5-6.4c0.4-0.5,0.7-1.1,1.1-1.6l9.7,6.2
			C59.3,142.4,58.9,143,58.4,143.6z M61.4,138.8l-10-5.8c0.3-0.6,0.6-1.1,0.9-1.7l10.1,5.5C62.2,137.5,61.8,138.2,61.4,138.8z
			 M64.1,133.9l-10.4-5c0.3-0.6,0.6-1.2,0.8-1.7l10.5,4.7C64.7,132.5,64.4,133.2,64.1,133.9z M66.4,128.7l-10.7-4.3
			c0.2-0.6,0.5-1.2,0.7-1.8l10.8,4C66.9,127.3,66.6,128,66.4,128.7z M68.3,123.4l-11-3.5c0.2-0.6,0.4-1.2,0.6-1.8l11.1,3.2
			C68.7,122,68.5,122.7,68.3,123.4z M69.8,118l-11.2-2.7c0.2-0.6,0.3-1.2,0.4-1.9l11.3,2.4C70.1,116.5,70,117.3,69.8,118z
			 M70.9,112.5l-11.4-1.9c0.1-0.6,0.2-1.3,0.3-1.9l11.4,1.6C71.2,111,71.1,111.7,70.9,112.5z M71.7,106.9l-11.5-1.1
			c0.1-0.6,0.1-1.3,0.2-1.9l11.5,0.8C71.8,105.4,71.8,106.2,71.7,106.9z M72,101.3L60.5,101c0-0.6,0-1.3,0-1.9v-0.1h11.5V99
			C72.1,99.8,72.1,100.5,72,101.3z M60.5,96c0-0.6-0.1-1.3-0.1-1.9l11.5-0.8c0.1,0.7,0.1,1.5,0.1,2.2L60.5,96z M60.1,91.2
			C60,90.6,60,90,59.9,89.3l11.4-1.6c0.1,0.7,0.2,1.5,0.3,2.2L60.1,91.2z M59.4,86.5c-0.1-0.6-0.2-1.3-0.4-1.9l11.3-2.4
			c0.2,0.7,0.3,1.5,0.4,2.2L59.4,86.5z M58.3,81.8c-0.2-0.6-0.3-1.2-0.5-1.9l11.1-3.2c0.2,0.7,0.4,1.4,0.6,2.2L58.3,81.8z M57,77.2
			c-0.2-0.6-0.4-1.2-0.6-1.8l10.8-4c0.3,0.7,0.5,1.4,0.8,2.1L57,77.2z M55.3,72.7c-0.2-0.6-0.5-1.2-0.8-1.8L65,66.2
			c0.3,0.7,0.6,1.4,0.9,2.1L55.3,72.7z M53.3,68.3c-0.3-0.6-0.6-1.1-0.9-1.7l10.1-5.5c0.4,0.7,0.7,1.3,1,2L53.3,68.3z M50.9,64.1
			c-0.3-0.6-0.7-1.1-1-1.6l9.7-6.2c0.4,0.6,0.8,1.3,1.2,1.9L50.9,64.1z M48.3,60.1c-0.4-0.5-0.7-1-1.1-1.6l9.3-6.9
			c0.4,0.6,0.9,1.2,1.3,1.8L48.3,60.1z M45.4,56.2c-0.4-0.5-0.8-1-1.2-1.5l8.8-7.5c0.5,0.6,1,1.1,1.4,1.7L45.4,56.2z"/>
	</g>
</g>
</svg>
